<?xml version="1.0" encoding="UTF-8" standalone="no"?>
<!-- Created with Inkscape (http://www.inkscape.org/) -->

<svg
   xmlns:dc="http://purl.org/dc/elements/1.1/"
   xmlns:cc="http://creativecommons.org/ns#"
   xmlns:rdf="http://www.w3.org/1999/02/22-rdf-syntax-ns#"
   xmlns:svg="http://www.w3.org/2000/svg"
   xmlns="http://www.w3.org/2000/svg"
   xmlns:sodipodi="http://sodipodi.sourceforge.net/DTD/sodipodi-0.dtd"
   xmlns:inkscape="http://www.inkscape.org/namespaces/inkscape"
   id="svg2"
   version="1.1"
   inkscape:version="0.91 r13725"
   xml:space="preserve"
   width="443.32501"
   height="88.337502"
   viewBox="0 0 443.32501 88.337502"
   sodipodi:docname="ECEN_primary.svg"><metadata
     id="metadata8"><rdf:RDF><cc:Work
         rdf:about=""><dc:format>image/svg+xml</dc:format><dc:type
           rdf:resource="http://purl.org/dc/dcmitype/StillImage" /><dc:title></dc:title></cc:Work></rdf:RDF></metadata><defs
     id="defs6"><clipPath
       clipPathUnits="userSpaceOnUse"
       id="clipPath18"><path
         d="M 0,0 0,707 798,707 798,0 0,0 Z"
         id="path20"
         inkscape:connector-curvature="0" /></clipPath></defs><sodipodi:namedview
     pagecolor="#ffffff"
     bordercolor="#666666"
     borderopacity="1"
     objecttolerance="10"
     gridtolerance="10"
     guidetolerance="10"
     inkscape:pageopacity="0"
     inkscape:pageshadow="2"
     inkscape:window-width="640"
     inkscape:window-height="480"
     id="namedview4"
     showgrid="false"
     inkscape:current-layer="g10" /><g
     id="g10"
     inkscape:groupmode="layer"
     inkscape:label="ink_ext_XXXXXX"
     transform="matrix(1.25,0,0,-1.25,0,88.3375)"><g
       id="g12"
       transform="scale(0.1,0.1)"><g
         id="g14"><g
           id="g16"
           clip-path="url(#clipPath18)"><path
             d="m 43.3438,33.4883 628.578,0 0,633.559 -628.578,0 0,-633.559 z"
             style="fill:#560f24;fill-opacity:1;fill-rule:nonzero;stroke:none"
             id="path22"
             inkscape:connector-curvature="0" /><path
             d="m 588.453,414.91 -49.39,0 -1.188,-2.445 -33.871,-70.481 -33.953,70.504 -1.18,2.422 -52.09,0 0,-32.637 11.996,0 0,-100.902 -12.664,0 0,-32.641 59.278,0 0,32.641 -13.059,0 0,71.609 37.84,-78.05 3.867,-7.942 3.879,7.942 38.242,78.238 0,-71.797 -12.664,0 0,-32.641 59.274,0 0,32.641 -13.036,0 0,100.902 13.036,0 0,32.637 -4.317,0"
             style="fill:#ffffff;fill-opacity:1;fill-rule:nonzero;stroke:none"
             id="path24"
             inkscape:connector-curvature="0" /><path
             d="m 223.012,330.965 -24.492,0 12.238,28.324 12.254,-28.324 z m 71.215,-49.5 -13.465,0 -43.856,101.363 8.492,0 0,32.668 -70.511,0 0,-32.668 9.695,0 -43.832,-101.363 -18.227,0 0,-32.645 63.903,0 0,32.645 -9.309,0 7.285,16.859 52.731,0 7.262,-16.859 -9.801,0 0,-32.645 63.937,0 0,32.645 -4.304,0"
             style="fill:#ffffff;fill-opacity:1;fill-rule:nonzero;stroke:none"
             id="path26"
             inkscape:connector-curvature="0" /><path
             d="m 534.836,541.609 -360.465,0 0,-104.804 71.227,0 0,40.191 75.863,0 0,-250.277 -40.199,0 0,-71.239 151.601,0 0,71.239 -40.168,0 0,250.277 75.383,0 0,-39.734 71.66,0 0,104.347 -4.902,0"
             style="fill:#ffffff;fill-opacity:1;fill-rule:nonzero;stroke:none"
             id="path28"
             inkscape:connector-curvature="0" /><path
             d="m 403.223,197.48 15.007,15.477 0,-42.406 -15.007,14.351 0,12.578"
             style="fill:#b2b1b1;fill-opacity:1;fill-rule:nonzero;stroke:none"
             id="path30"
             inkscape:connector-curvature="0" /><path
             d="m 378.191,211.82 -15.035,-14.797 0,309.485 15.035,-14.985 0,-279.703"
             style="fill:#b2b1b1;fill-opacity:1;fill-rule:nonzero;stroke:none"
             id="path32"
             inkscape:connector-curvature="0" /><path
             d="m 204.492,511.945 -15.461,15.028 328.578,0 -19.429,-15.028 -293.688,0"
             style="fill:#b2b1b1;fill-opacity:1;fill-rule:nonzero;stroke:none"
             id="path34"
             inkscape:connector-curvature="0" /><path
             d="m 525.574,451.004 -15.031,14.336 0,38.223 15.031,15.449 0,-68.008"
             style="fill:#b2b1b1;fill-opacity:1;fill-rule:nonzero;stroke:none"
             id="path36"
             inkscape:connector-curvature="0" /><path
             d="m 704.676,47.1719 2.34,0 c 1.566,0 2.929,0.207 2.929,2.125 0,1.6797 -1.539,1.957 -2.894,1.957 l -2.375,0 0,-4.082 z m -2.656,6.1054 5.308,0 c 3.418,0 5.27,-1.1875 5.27,-4.1835 0,-2.4415 -1.395,-3.629 -3.735,-3.8438 l 3.84,-6.2461 -2.719,0 -3.703,6.1406 -1.605,0 0,-6.1406 -2.656,0 0,14.2734 z m 14.382,-7.1835 c 0,5.8906 -4.257,10.1523 -9.527,10.1523 -5.273,0 -9.531,-4.2617 -9.531,-10.1523 0,-5.9024 4.258,-10.1602 9.531,-10.1602 5.27,0 9.527,4.2578 9.527,10.1602 m -22.129,0 c 0,6.9414 5.657,12.5937 12.602,12.5937 6.941,0 12.598,-5.6523 12.598,-12.5937 0,-6.9493 -5.657,-12.6055 -12.598,-12.6055 -6.945,0 -12.602,5.6562 -12.602,12.6055"
             style="fill:#560f24;fill-opacity:1;fill-rule:nonzero;stroke:none"
             id="path38"
             inkscape:connector-curvature="0" /></g></g><path
         d="m 961.066,153.535 c -1.562,6.508 -3.125,10.539 -5.078,12.758 -2.343,2.602 -5.207,3.383 -13.668,3.383 l -7.027,0 0,-62.348 c 0,-10.8007 1.172,-11.8397 13.016,-12.7538 l 0,-4.164 -40.606,0 0,4.164 c 11.192,0.9141 12.492,1.9531 12.492,12.7538 l 0,62.348 -5.859,0 c -10.672,0 -13.145,-1.172 -14.965,-3.649 -1.953,-2.211 -3.383,-6.375 -4.945,-12.621 l -4.43,0 c 0.524,8.848 1.305,18.09 1.563,24.86 l 2.992,0 c 1.953,-2.993 3.648,-3.254 7.293,-3.254 l 52.062,0 c 3.387,0 4.949,0.777 7.16,3.254 l 2.993,0 c 0,-5.594 0.652,-16.403 1.3,-24.469 l -4.293,-0.262"
         style="fill:#550520;fill-opacity:1;fill-rule:nonzero;stroke:none"
         id="path40"
         inkscape:connector-curvature="0" /><path
         d="m 1080.75,111.625 c -0.78,-5.203 -3.38,-17.3086 -4.55,-21.2148 l -65.08,0 0,4.164 c 11.32,0.9141 12.49,1.8203 12.49,12.7538 l 0,50.637 c 0,11.449 -1.17,11.969 -10.67,12.75 l 0,4.297 60,0 c 0.13,-2.606 0.78,-11.711 1.3,-19.266 l -4.42,-0.648 c -1.17,4.945 -2.73,8.718 -4.82,11.195 -2.08,2.469 -5.59,3.383 -13.66,3.383 l -7.55,0 c -4.56,0 -4.95,-0.262 -4.95,-4.43 l 0,-28.238 10.02,0 c 11.2,0 12.5,0.777 14.19,9.758 l 4.43,0 0,-25.77 -4.43,0 c -1.69,9.367 -2.99,9.891 -14.19,9.891 l -10.02,0 0,-23.168 c 0,-6.246 0.65,-9.2385 3.12,-10.6721 2.35,-1.3008 6.9,-1.4336 12.24,-1.4336 7.94,0 12.24,0.914 15.23,4.2969 2.47,2.7348 4.81,7.0278 7.03,12.4958 l 4.29,-0.781"
         style="fill:#550520;fill-opacity:1;fill-rule:nonzero;stroke:none"
         id="path42"
         inkscape:connector-curvature="0" /><path
         d="m 1171.42,90.4102 0,4.164 c 8.46,1.4297 8.33,2.9922 5.99,7.2888 -1.95,3.383 -5.99,10.02 -14.97,24.86 -6.24,-9.371 -11.58,-17.961 -14.84,-24.078 -3.12,-5.5981 -2.21,-6.6411 6.51,-8.0708 l 0,-4.164 -31.62,0 0,4.164 c 7.28,0.7813 11.71,2.7344 15.49,7.2888 4.16,5.207 12.36,16.141 21.21,29.672 -6.38,10.551 -12.1,19.785 -18.09,29.289 -4.43,7.028 -7.29,8.981 -16.27,9.891 l 0,4.297 36.7,0 0,-4.297 c -7.55,-1.301 -7.42,-2.735 -5.72,-5.86 2.99,-5.335 7.41,-12.363 12.88,-21.082 4.56,6.375 8.85,13.278 12.11,19.262 2.73,5.078 2.34,6.379 -6.25,7.68 l 0,4.297 30.85,0 0,-4.297 c -8.86,-1.039 -11.98,-2.473 -17.44,-9.242 -3.91,-4.813 -8.99,-11.84 -16.15,-22.254 7.43,-11.715 14.06,-22.516 21.22,-33.321 5.59,-8.7222 8.46,-10.4097 17.44,-11.3238 l 0,-4.164 -39.05,0"
         style="fill:#550520;fill-opacity:1;fill-rule:nonzero;stroke:none"
         id="path44"
         inkscape:connector-curvature="0" /><path
         d="m 1292.79,155.617 -0.39,0 c -3.77,-10.023 -7.29,-20.176 -10.93,-29.933 l 21.6,0 -10.28,29.933 z m 11.72,-65.2068 0,4.164 c 7.81,1.1719 8.59,2.6016 6.77,8.0708 -1.44,4.293 -3.65,10.41 -5.99,16.66 l -25.9,0 c -1.7,-4.821 -3.51,-9.766 -5.08,-14.969 -2.21,-7.0274 -1.56,-8.5899 7.94,-9.7618 l 0,-4.164 -28.77,0 0,4.164 c 8.47,1.1719 10.16,2.3438 14.58,13.5348 l 26.68,67.293 5.74,1.559 c 8.33,-22.645 16.52,-46.074 24.99,-68.461 4.29,-11.4531 5.98,-12.8867 14.31,-13.9258 l 0,-4.164 -35.27,0"
         style="fill:#550520;fill-opacity:1;fill-rule:nonzero;stroke:none"
         id="path46"
         inkscape:connector-curvature="0" /><path
         d="m 1431.75,154.316 c -2.6,8.204 -7.03,17.571 -17.83,17.571 -8.2,0 -13.28,-5.985 -13.28,-13.274 0,-8.07 5.34,-12.363 16.41,-17.832 12.36,-6.25 22.77,-13.019 22.77,-26.554 0,-14.4497 -12.24,-25.77 -30.71,-25.77 -4.95,0 -9.38,0.7813 -12.89,1.9532 -3.52,1.039 -5.86,1.9531 -7.42,2.7343 -1.18,3.125 -2.87,14.0545 -3.77,21.3395 l 4.42,1.305 c 2.34,-8.199 9.37,-22.2538 22.13,-22.2538 8.72,0 14.05,5.7265 14.05,14.4448 0,8.333 -6.25,13.149 -16,18.219 -11.59,5.992 -22.26,12.887 -22.26,26.164 0,13.539 10.8,24.598 28.63,24.598 7.55,0 14.19,-2.211 17.57,-3.25 0.52,-4.816 1.3,-10.285 2.34,-18.484 l -4.16,-0.911"
         style="fill:#550520;fill-opacity:1;fill-rule:nonzero;stroke:none"
         id="path48"
         inkscape:connector-curvature="0" /><path
         d="m 1592.8,155.617 -0.39,0 c -3.77,-10.023 -7.29,-20.176 -10.93,-29.933 l 21.6,0 -10.28,29.933 z m 11.72,-65.2068 0,4.164 c 7.81,1.1719 8.59,2.6016 6.77,8.0708 -1.44,4.293 -3.65,10.41 -5.99,16.66 l -25.9,0 c -1.7,-4.821 -3.51,-9.766 -5.08,-14.969 -2.21,-7.0274 -1.56,-8.5899 7.94,-9.7618 l 0,-4.164 -28.77,0 0,4.164 c 8.47,1.1719 10.16,2.3438 14.58,13.5348 l 26.68,67.293 5.73,1.559 c 8.34,-22.645 16.53,-46.074 25,-68.461 4.29,-11.4531 5.98,-12.8867 14.31,-13.9258 l 0,-4.164 -35.27,0"
         style="fill:#550520;fill-opacity:1;fill-rule:nonzero;stroke:none"
         id="path50"
         inkscape:connector-curvature="0" /><path
         d="m 1709.12,159.652 c 0,-6.507 3.64,-11.062 12.1,-17.566 4.42,3.383 7.67,8.586 7.67,16.266 0,6.894 -3.77,13.277 -10.27,13.277 -5.47,0 -9.5,-5.336 -9.5,-11.977 z m 27.46,-51.152 c -8.6,8.98 -15.88,15.488 -27.21,25.121 -5.33,-4.687 -7.8,-10.281 -7.8,-15.879 0,-12.367 8.97,-18.3553 17.57,-18.3553 6.89,0 13.66,4.4293 17.44,9.1133 z m 39.04,33.191 c -8.33,-0.781 -10.67,-2.863 -15.22,-8.98 -3.65,-4.816 -6.91,-9.895 -11.19,-16.008 7.41,-7.164 16.78,-18.2225 22.11,-26.8163 l -0.78,-1.4297 c -10.8,0.1328 -18.47,3.125 -20.04,4.8125 -1.68,1.8282 -6.12,6.7735 -10.67,11.4575 -8.59,-11.3247 -17.05,-16.1372 -25.9,-16.1372 -17.19,0 -26.69,12.7502 -26.69,24.0742 0,11.195 7.3,16.145 18.75,24.082 -5.59,5.34 -8.98,10.934 -8.98,18.352 0,11.711 10.55,21.347 22.77,21.347 12.24,0 21.1,-7.812 21.1,-18.48 0,-4.82 -2.35,-8.332 -5.47,-10.942 -2.61,-2.335 -6.13,-4.812 -10.55,-7.804 4.03,-3.383 12.11,-10.41 20.83,-19.004 2.6,4.039 4.81,7.812 6.89,12.625 2.74,5.988 1.57,7.68 -7.42,8.851 l 0.14,4.168 30.32,0 0,-4.168"
         style="fill:#550520;fill-opacity:1;fill-rule:nonzero;stroke:none"
         id="path52"
         inkscape:connector-curvature="0" /><path
         d="m 1888.01,90.4102 0,4.164 c 10.16,1.0391 10.68,1.9531 10.68,14.5738 l -0.39,51.153 -0.52,0 -29.81,-68.9807 -3.38,0 -27.46,67.5507 -0.4,0 -1.69,-35.141 c -0.52,-10.8 -0.52,-16.66 -0.13,-21.218 0.39,-5.9847 3.12,-7.0237 11.84,-7.805 l 0,-4.2968 -30.97,0 0,4.2968 c 7.42,0.6485 9.89,2.7266 10.67,7.547 0.78,4.293 1.69,10.676 2.74,24.336 l 1.95,26.164 c 1.17,15.617 0.25,16.922 -11.2,17.961 l 0,4.297 24.99,0 26.69,-59.871 27.2,59.871 24.73,0 0,-4.297 c -10.81,-1.039 -11.45,-1.692 -11.2,-13.535 l 1.31,-48.032 c 0.25,-12.6207 0.78,-13.5347 11.45,-14.5738 l 0,-4.164 -37.1,0"
         style="fill:#550520;fill-opacity:1;fill-rule:nonzero;stroke:none"
         id="path54"
         inkscape:connector-curvature="0" /><path
         d="m 2129.36,170.715 c -7.42,-0.391 -10.54,-2.735 -11.2,-7.68 -0.52,-3.773 -0.91,-8.847 -0.91,-19.129 l 0,-12.886 c 0,-14.317 -2.21,-25.383 -9.63,-33.1958 -5.98,-6.2422 -14.84,-9.3672 -23.81,-9.3672 -8.21,0 -16.15,1.8203 -22.26,6.5078 -7.42,5.8552 -11.07,15.4882 -11.07,30.7192 l 0,31.367 c 0,12.101 -1.17,12.754 -11.06,13.664 l 0,4.297 37.23,0 0,-4.297 c -9.77,-0.781 -10.94,-1.563 -10.94,-13.664 l 0,-28.766 c 0,-20.043 7.42,-31.6248 22.26,-31.6248 16.66,0 23.17,13.1448 23.17,34.8748 l 0,12.371 c 0,10.149 -0.66,15.356 -1.17,19.395 -0.78,4.679 -3.65,6.894 -12.63,7.414 l 0,4.297 32.02,0 0,-4.297"
         style="fill:#550520;fill-opacity:1;fill-rule:nonzero;stroke:none"
         id="path56"
         inkscape:connector-curvature="0" /><path
         d="m 2263.62,170.848 c -7.03,-0.391 -9.89,-2.215 -10.55,-8.071 -0.51,-3.906 -1.03,-10.023 -1.03,-21.738 l 0,-51.9335 -5.47,0 -54.67,66.1215 -0.26,0 0,-30.586 c 0,-11.586 0.52,-17.442 0.92,-21.344 0.64,-6.1212 3.12,-8.1993 12.49,-8.7228 l 0,-4.164 -31.5,0 0,4.164 c 7.29,0.5235 10.41,2.4727 11.07,8.3278 0.39,4.297 1.03,10.153 1.03,21.739 l 0,27.722 c 0,8.852 -0.13,10.672 -2.6,13.664 -2.6,3.258 -5.34,4.297 -11.19,4.821 l 0,4.164 22.38,0 51.42,-60.004 0.39,0 0,26.031 c 0,11.715 -0.65,17.832 -0.92,21.606 -0.78,5.597 -3.51,7.679 -12.88,8.203 l 0,4.164 31.37,0 0,-4.164"
         style="fill:#550520;fill-opacity:1;fill-rule:nonzero;stroke:none"
         id="path58"
         inkscape:connector-curvature="0" /><path
         d="m 2310.02,90.4102 0,4.164 c 10.03,0.9141 11.2,1.6953 11.2,12.7538 l 0,50.637 c 0,11.058 -1.17,11.969 -11.2,12.75 l 0,4.297 37.36,0 0,-4.297 c -10.03,-0.781 -11.06,-1.692 -11.06,-12.75 l 0,-50.637 c 0,-10.9335 1.03,-11.8397 11.06,-12.7538 l 0,-4.164 -37.36,0"
         style="fill:#550520;fill-opacity:1;fill-rule:nonzero;stroke:none"
         id="path60"
         inkscape:connector-curvature="0" /><path
         d="m 2482.18,170.715 c -8.59,-1.039 -10.81,-2.473 -15.87,-14.578 -4.04,-9.496 -16.54,-40.215 -26.56,-67.1604 l -5.59,0 c -8.86,23.8204 -20.57,54.0154 -26.69,69.5034 -3.9,9.891 -5.99,11.454 -13.93,12.235 l 0,4.297 36.32,0 0,-4.297 c -9.5,-1.301 -9.63,-2.602 -7.55,-8.195 3.64,-10.028 13.54,-35.93 19.79,-51.809 l 0.25,0 c 7.03,17.965 14.06,36.707 17.83,48.684 2.86,8.457 2.47,10.019 -8.06,11.32 l 0,4.297 30.06,0 0,-4.297"
         style="fill:#550520;fill-opacity:1;fill-rule:nonzero;stroke:none"
         id="path62"
         inkscape:connector-curvature="0" /><path
         d="m 2595.75,111.625 c -0.78,-5.203 -3.38,-17.3086 -4.55,-21.2148 l -65.08,0 0,4.164 c 11.32,0.9141 12.49,1.8203 12.49,12.7538 l 0,50.637 c 0,11.449 -1.17,11.969 -10.67,12.75 l 0,4.297 60.01,0 c 0.12,-2.606 0.78,-11.711 1.29,-19.266 l -4.42,-0.648 c -1.17,4.945 -2.73,8.718 -4.81,11.195 -2.09,2.469 -5.6,3.383 -13.68,3.383 l -7.54,0 c -4.56,0 -4.95,-0.262 -4.95,-4.43 l 0,-28.238 10.02,0 c 11.19,0 12.5,0.777 14.19,9.758 l 4.43,0 0,-25.77 -4.43,0 c -1.69,9.367 -3,9.891 -14.19,9.891 l -10.02,0 0,-23.168 c 0,-6.246 0.65,-9.2385 3.13,-10.6721 2.34,-1.3008 6.89,-1.4336 12.23,-1.4336 7.94,0 12.23,0.914 15.23,4.2969 2.47,2.7348 4.81,7.0278 7.03,12.4958 l 4.29,-0.781"
         style="fill:#550520;fill-opacity:1;fill-rule:nonzero;stroke:none"
         id="path64"
         inkscape:connector-curvature="0" /><path
         d="m 2671.83,131.801 c 5.99,0 10.29,1.039 13.27,3.512 4.56,3.773 6.52,8.984 6.52,15.75 0,13.925 -8.33,19.132 -16.66,19.132 -3.39,0 -5.34,-0.648 -6.25,-1.3 -0.91,-0.782 -1.17,-2.211 -1.17,-5.211 l 0,-31.883 4.29,0 z m 48.55,-42.5627 c -1.04,0 -2.6,0.1289 -4.04,0.1289 -14.05,0.6523 -19.25,4.0351 -24.72,12.3628 -3.78,5.731 -7.82,13.149 -11.58,19.786 -2.09,3.91 -4.44,5.464 -9.51,5.464 l -2.99,0 0,-19.652 c 0,-10.6678 1.17,-11.8397 11.19,-12.7538 l 0,-4.164 -37.48,0 0,4.164 c 10.02,0.9141 11.45,1.9531 11.45,12.7538 l 0,50.895 c 0,10.672 -1.17,11.711 -10.94,12.492 l 0,4.297 35.01,0 c 10.68,0 17.19,-1.301 22.4,-4.688 5.2,-3.515 8.72,-9.242 8.72,-17.308 0,-11.325 -7.42,-17.703 -16.41,-21.481 2.09,-4.031 7.03,-12.754 10.94,-18.605 4.69,-7.164 7.42,-11.067 10.28,-13.9339 2.99,-3.3828 5.47,-4.9453 8.46,-5.8516 l -0.78,-3.9062"
         style="fill:#550520;fill-opacity:1;fill-rule:nonzero;stroke:none"
         id="path66"
         inkscape:connector-curvature="0" /><path
         d="m 2811.44,154.316 c -2.61,8.204 -7.03,17.571 -17.83,17.571 -8.2,0 -13.28,-5.985 -13.28,-13.274 0,-8.07 5.34,-12.363 16.4,-17.832 12.37,-6.25 22.78,-13.019 22.78,-26.554 0,-14.4497 -12.24,-25.77 -30.71,-25.77 -4.96,0 -9.38,0.7813 -12.9,1.9532 -3.51,1.039 -5.85,1.9531 -7.42,2.7343 -1.17,3.125 -2.86,14.0545 -3.77,21.3395 l 4.43,1.305 c 2.34,-8.199 9.37,-22.2538 22.13,-22.2538 8.72,0 14.05,5.7265 14.05,14.4448 0,8.333 -6.25,13.149 -16.01,18.219 -11.58,5.992 -22.25,12.887 -22.25,26.164 0,13.539 10.8,24.598 28.63,24.598 7.55,0 14.19,-2.211 17.57,-3.25 0.52,-4.816 1.3,-10.285 2.34,-18.484 l -4.16,-0.911"
         style="fill:#550520;fill-opacity:1;fill-rule:nonzero;stroke:none"
         id="path68"
         inkscape:connector-curvature="0" /><path
         d="m 2866.19,90.4102 0,4.164 c 10.03,0.9141 11.2,1.6953 11.2,12.7538 l 0,50.637 c 0,11.058 -1.17,11.969 -11.2,12.75 l 0,4.297 37.36,0 0,-4.297 c -10.03,-0.781 -11.06,-1.692 -11.06,-12.75 l 0,-50.637 c 0,-10.9335 1.03,-11.8397 11.06,-12.7538 l 0,-4.164 -37.36,0"
         style="fill:#550520;fill-opacity:1;fill-rule:nonzero;stroke:none"
         id="path70"
         inkscape:connector-curvature="0" /><path
         d="m 3022.33,153.535 c -1.56,6.508 -3.12,10.539 -5.07,12.758 -2.34,2.602 -5.21,3.383 -13.67,3.383 l -7.03,0 0,-62.348 c 0,-10.8007 1.17,-11.8397 13.02,-12.7538 l 0,-4.164 -40.61,0 0,4.164 c 11.19,0.9141 12.49,1.9531 12.49,12.7538 l 0,62.348 -5.85,0 c -10.67,0 -13.15,-1.172 -14.97,-3.649 -1.95,-2.211 -3.39,-6.375 -4.95,-12.621 l -4.42,0 c 0.51,8.848 1.29,18.09 1.56,24.86 l 3,0 c 1.95,-2.993 3.64,-3.254 7.28,-3.254 l 52.06,0 c 3.39,0 4.95,0.777 7.16,3.254 l 3,0 c 0,-5.594 0.65,-16.403 1.3,-24.469 l -4.3,-0.262"
         style="fill:#550520;fill-opacity:1;fill-rule:nonzero;stroke:none"
         id="path72"
         inkscape:connector-curvature="0" /><path
         d="m 3154.79,170.715 c -8.59,-0.91 -10.8,-2.863 -15.61,-10.672 -5.21,-8.328 -8.99,-14.574 -15.24,-26.555 -1.81,-3.383 -2.34,-4.945 -2.34,-8.718 l 0,-17.051 c 0,-11.4495 1.04,-12.2307 12.76,-13.1448 l 0,-4.164 -40.22,0 0,4.164 c 11.19,0.7813 12.36,1.6953 12.36,13.1448 l 0,15.488 c 0,2.992 -0.52,4.297 -2.08,7.422 -3.91,7.418 -8.72,16.012 -16.14,29.156 -5.07,8.719 -6.9,10.02 -14.32,10.93 l 0,4.297 34.88,0 0,-4.297 c -8.72,-1.168 -8.58,-2.735 -6.25,-7.289 4.96,-9.5 10.55,-19.52 15.88,-29.156 4.17,7.816 10.94,20.175 14.19,28.117 2.47,5.726 2.22,7.289 -7.55,8.328 l 0,4.297 29.68,0 0,-4.297"
         style="fill:#550520;fill-opacity:1;fill-rule:nonzero;stroke:none"
         id="path74"
         inkscape:connector-curvature="0" /><path
         d="m 977.559,469.57 -86.883,0 0,146.34 86.883,0 0,-31.73 -47.348,0 0,-23.02 43.848,0 0,-31.734 -43.848,0 0,-27.625 47.348,0 0,-32.231"
         style="fill:#550520;fill-opacity:1;fill-rule:nonzero;stroke:none"
         id="path76"
         inkscape:connector-curvature="0" /><path
         d="m 1005.73,469.57 0,146.34 39.54,0 0,-114.406 56.35,0 0,-31.934 -95.89,0"
         style="fill:#550520;fill-opacity:1;fill-rule:nonzero;stroke:none"
         id="path78"
         inkscape:connector-curvature="0" /><path
         d="m 1209.94,469.57 -86.89,0 0,146.34 86.89,0 0,-31.73 -47.35,0 0,-23.02 43.85,0 0,-31.734 -43.85,0 0,-27.625 47.35,0 0,-32.231"
         style="fill:#550520;fill-opacity:1;fill-rule:nonzero;stroke:none"
         id="path80"
         inkscape:connector-curvature="0" /><path
         d="m 1300.92,585.586 c -9.39,0 -16.73,-3.859 -22.01,-11.563 -5.27,-7.71 -7.91,-18.335 -7.91,-31.886 0,-28.16 10.71,-42.235 32.13,-42.235 6.47,0 12.76,0.899 18.83,2.7 6.05,1.8 12.17,3.968 18.3,6.507 l 0,-33.437 c -12.21,-5.399 -26.02,-8.106 -41.43,-8.106 -22.09,0 -39.02,6.407 -50.8,19.219 -11.78,12.813 -17.67,31.328 -17.67,55.559 0,15.144 2.85,28.457 8.56,39.933 5.71,11.477 13.92,20.305 24.62,26.477 10.72,6.172 23.3,9.262 37.79,9.262 15.82,0 30.92,-3.442 45.34,-10.313 l -12.11,-31.133 c -5.39,2.539 -10.8,4.672 -16.21,6.407 -5.41,1.738 -11.21,2.609 -17.43,2.609"
         style="fill:#550520;fill-opacity:1;fill-rule:nonzero;stroke:none"
         id="path82"
         inkscape:connector-curvature="0" /><path
         d="m 1437.62,469.57 -39.54,0 0,114.012 -35.73,0 0,32.328 110.91,0 0,-32.328 -35.64,0 0,-114.012"
         style="fill:#550520;fill-opacity:1;fill-rule:nonzero;stroke:none"
         id="path84"
         inkscape:connector-curvature="0" /><path
         d="m 1533,552.547 7.42,0 c 13.81,0 20.71,6.109 20.71,18.32 0,10.074 -6.77,15.117 -20.31,15.117 l -7.82,0 0,-33.437 z m 0,-29.727 0,-53.25 -39.53,0 0,146.34 47.94,0 c 39.78,0 59.66,-14.414 59.66,-43.238 0,-16.957 -8.27,-30.067 -24.82,-39.344 l 42.64,-63.758 -44.84,0 -31.04,53.25 -10.01,0"
         style="fill:#550520;fill-opacity:1;fill-rule:nonzero;stroke:none"
         id="path86"
         inkscape:connector-curvature="0" /><path
         d="m 1635.34,469.57 39.7305,0 0,146.34 -39.7305,0 0,-146.34 z"
         style="fill:#550520;fill-opacity:1;fill-rule:nonzero;stroke:none"
         id="path88"
         inkscape:connector-curvature="0" /><path
         d="m 1771.86,585.586 c -9.4,0 -16.75,-3.859 -22.02,-11.563 -5.27,-7.71 -7.9,-18.335 -7.9,-31.886 0,-28.16 10.7,-42.235 32.13,-42.235 6.46,0 12.74,0.899 18.82,2.7 6.06,1.8 12.18,3.968 18.31,6.507 l 0,-33.437 c -12.21,-5.399 -26.02,-8.106 -41.44,-8.106 -22.09,0 -39.02,6.407 -50.8,19.219 -11.78,12.813 -17.66,31.328 -17.66,55.559 0,15.144 2.85,28.457 8.55,39.933 5.71,11.477 13.92,20.305 24.63,26.477 10.71,6.172 23.3,9.262 37.78,9.262 15.82,0 30.93,-3.442 45.34,-10.313 l -12.11,-31.133 c -5.4,2.539 -10.81,4.672 -16.21,6.407 -5.41,1.738 -11.21,2.609 -17.42,2.609"
         style="fill:#550520;fill-opacity:1;fill-rule:nonzero;stroke:none"
         id="path90"
         inkscape:connector-curvature="0" /><path
         d="m 1917.21,529.426 -6.3,24.023 c -1.47,5.34 -3.26,12.246 -5.36,20.719 -2.1,8.477 -3.48,14.551 -4.15,18.223 -0.6,-3.407 -1.78,-9.012 -3.55,-16.817 -1.77,-7.812 -5.7,-23.191 -11.76,-46.148 l 31.12,0 z m 15.42,-59.856 -7.2,27.426 -47.55,0 -7.41,-27.426 -43.44,0 47.74,146.942 52.76,0 48.35,-146.942 -43.25,0"
         style="fill:#550520;fill-opacity:1;fill-rule:nonzero;stroke:none"
         id="path92"
         inkscape:connector-curvature="0" /><path
         d="m 1993.67,469.57 0,146.34 39.53,0 0,-114.406 56.36,0 0,-31.934 -95.89,0"
         style="fill:#550520;fill-opacity:1;fill-rule:nonzero;stroke:none"
         id="path94"
         inkscape:connector-curvature="0" /><path
         d="m 2227.49,582.977 c 0,3.273 -0.95,5.625 -2.85,7.062 -1.9,1.43 -4.29,2.149 -7.15,2.149 -2.82,0 -5.27,-0.836 -7.37,-2.5 -2.1,-1.672 -3.15,-4.344 -3.15,-8.008 0,-5.004 2.94,-10.176 8.81,-15.52 3.81,2.141 6.71,4.688 8.71,7.66 2,2.973 3,6.024 3,9.157 z m -29.52,-69.965 c 0,-4.203 1.49,-7.641 4.5,-10.309 3.01,-2.672 6.97,-4.004 11.91,-4.004 3.8,0 7.14,0.5 10.01,1.5 2.86,1 5.07,2.133 6.6,3.403 l -24.82,25.226 c -5.47,-4.074 -8.2,-9.348 -8.2,-15.816 z m 66.66,-43.442 -9.92,10.207 c -5.99,-3.8 -10.92,-6.425 -14.75,-7.855 -3.84,-1.434 -8.15,-2.52 -12.92,-3.25 -4.77,-0.738 -10.23,-1.106 -16.37,-1.106 -10.54,0 -19.86,1.801 -27.97,5.407 -8.11,3.601 -14.31,8.64 -18.62,15.113 -4.31,6.473 -6.46,13.848 -6.46,22.125 0,17.477 9.08,30.863 27.23,40.141 -4.14,4.668 -7.35,9.621 -9.66,14.863 -2.3,5.234 -3.46,11.16 -3.46,17.762 0,10.679 4.13,19.156 12.37,25.429 8.24,6.27 19.57,9.407 33.98,9.407 14.08,0 25.04,-3.122 32.88,-9.356 7.85,-6.242 11.76,-14.734 11.76,-25.48 0,-7.403 -2.12,-14.262 -6.35,-20.567 -4.23,-6.308 -10.92,-12.23 -20.07,-17.769 l 19.92,-18.918 c 5.01,7.675 8.47,16.351 10.41,26.023 l 40.64,0 c -2,-9.207 -5.15,-18.433 -9.46,-27.676 -4.31,-9.242 -9.16,-17.168 -14.56,-23.769 l 32.03,-30.731 -50.65,0"
         style="fill:#550520;fill-opacity:1;fill-rule:nonzero;stroke:none"
         id="path96"
         inkscape:connector-curvature="0" /><path
         d="m 2448.4,585.586 c -9.4,0 -16.74,-3.859 -22.02,-11.563 -5.27,-7.71 -7.9,-18.335 -7.9,-31.886 0,-28.16 10.71,-42.235 32.13,-42.235 6.47,0 12.75,0.899 18.82,2.7 6.06,1.8 12.18,3.968 18.31,6.507 l 0,-33.437 c -12.21,-5.399 -26.01,-8.106 -41.43,-8.106 -22.09,0 -39.03,6.407 -50.81,19.219 -11.77,12.813 -17.66,31.328 -17.66,55.559 0,15.144 2.85,28.457 8.55,39.933 5.72,11.477 13.92,20.305 24.63,26.477 10.71,6.172 23.3,9.262 37.79,9.262 15.82,0 30.92,-3.442 45.34,-10.313 l -12.11,-31.133 c -5.4,2.539 -10.81,4.672 -16.21,6.407 -5.41,1.738 -11.21,2.609 -17.43,2.609"
         style="fill:#550520;fill-opacity:1;fill-rule:nonzero;stroke:none"
         id="path98"
         inkscape:connector-curvature="0" /><path
         d="m 2549.23,542.938 c 0,-28.29 9.84,-42.442 29.53,-42.442 10.01,0 17.43,3.438 22.26,10.313 4.85,6.871 7.27,17.582 7.27,32.129 0,14.621 -2.46,25.41 -7.37,32.382 -4.9,6.973 -12.22,10.461 -21.97,10.461 -19.81,0 -29.72,-14.277 -29.72,-42.843 z m 100.7,0 c 0,-24.618 -6.05,-43.34 -18.13,-56.153 -12.08,-12.812 -29.76,-19.219 -53.04,-19.219 -22.96,0 -40.56,6.442 -52.81,19.317 -12.24,12.883 -18.37,31.633 -18.37,56.262 0,24.355 6.09,42.953 18.28,55.8 12.17,12.844 29.87,19.266 53.09,19.266 23.29,0 40.94,-6.371 52.95,-19.117 12.01,-12.746 18.03,-31.461 18.03,-56.156"
         style="fill:#550520;fill-opacity:1;fill-rule:nonzero;stroke:none"
         id="path100"
         inkscape:connector-curvature="0" /><path
         d="m 2740.17,469.57 -29.93,105.399 -0.9,0 c 1.4,-17.949 2.1,-31.895 2.1,-41.836 l 0,-63.563 -35.03,0 0,146.34 52.65,0 30.53,-103.898 0.8,0 29.93,103.898 52.75,0 0,-146.34 -36.34,0 0,64.16 c 0,3.34 0.05,7.04 0.15,11.114 0.11,4.066 0.56,14.047 1.36,29.929 l -0.91,0 -29.52,-105.203 -37.64,0"
         style="fill:#550520;fill-opacity:1;fill-rule:nonzero;stroke:none"
         id="path102"
         inkscape:connector-curvature="0" /><path
         d="m 2914.63,550.352 7.2,0 c 5.94,0 10.67,1.664 14.17,5 3.5,3.339 5.26,7.945 5.26,13.816 0,9.875 -5.48,14.816 -16.42,14.816 l -10.21,0 0,-33.632 z m 66.67,19.011 c 0,-16.347 -4.83,-28.972 -14.47,-37.886 -9.65,-8.907 -23.34,-13.364 -41.09,-13.364 l -11.11,0 0,-48.543 -39.54,0 0,146.34 50.65,0 c 18.48,0 32.36,-4.035 41.64,-12.113 9.28,-8.07 13.92,-19.551 13.92,-34.434"
         style="fill:#550520;fill-opacity:1;fill-rule:nonzero;stroke:none"
         id="path104"
         inkscape:connector-curvature="0" /><path
         d="m 3127.58,615.91 0,-88.086 c 0,-19.152 -5.42,-33.984 -16.26,-44.488 -10.85,-10.516 -26.47,-15.77 -46.9,-15.77 -19.95,0 -35.28,5.11 -45.99,15.313 -10.71,10.215 -16.06,24.894 -16.06,44.043 l 0,88.988 39.74,0 0,-85.883 c 0,-10.347 1.93,-17.851 5.8,-22.519 3.86,-4.672 9.58,-7.012 17.12,-7.012 8.07,0 13.92,2.32 17.56,6.957 3.64,4.641 5.46,12.227 5.46,22.774 l 0,85.683 39.53,0"
         style="fill:#550520;fill-opacity:1;fill-rule:nonzero;stroke:none"
         id="path106"
         inkscape:connector-curvature="0" /><path
         d="m 3222.79,469.57 -39.54,0 0,114.012 -35.73,0 0,32.328 110.9,0 0,-32.328 -35.63,0 0,-114.012"
         style="fill:#550520;fill-opacity:1;fill-rule:nonzero;stroke:none"
         id="path108"
         inkscape:connector-curvature="0" /><path
         d="m 3365.49,469.57 -86.87,0 0,146.34 86.87,0 0,-31.73 -47.34,0 0,-23.02 43.85,0 0,-31.734 -43.85,0 0,-27.625 47.34,0 0,-32.231"
         style="fill:#550520;fill-opacity:1;fill-rule:nonzero;stroke:none"
         id="path110"
         inkscape:connector-curvature="0" /><path
         d="m 3433.21,552.547 7.41,0 c 13.81,0 20.71,6.109 20.71,18.32 0,10.074 -6.76,15.117 -20.31,15.117 l -7.81,0 0,-33.437 z m 0,-29.727 0,-53.25 -39.53,0 0,146.34 47.94,0 c 39.77,0 59.66,-14.414 59.66,-43.238 0,-16.957 -8.28,-30.067 -24.83,-39.344 l 42.65,-63.758 -44.85,0 -31.03,53.25 -10.01,0"
         style="fill:#550520;fill-opacity:1;fill-rule:nonzero;stroke:none"
         id="path112"
         inkscape:connector-curvature="0" /><path
         d="m 977.559,259.57 -86.883,0 0,146.34 86.883,0 0,-31.73 -47.348,0 0,-23.02 43.848,0 0,-31.734 -43.848,0 0,-27.625 47.348,0 0,-32.231"
         style="fill:#550520;fill-opacity:1;fill-rule:nonzero;stroke:none"
         id="path114"
         inkscape:connector-curvature="0" /><path
         d="m 1145.07,259.57 -51.86,0 -53.45,103.102 -0.9,0 c 1.27,-16.219 1.9,-28.598 1.9,-37.137 l 0,-65.965 -35.03,0 0,146.34 51.65,0 53.25,-101.695 0.6,0 c -0.94,14.746 -1.4,26.59 -1.4,35.531 l 0,66.164 35.24,0 0,-146.34"
         style="fill:#550520;fill-opacity:1;fill-rule:nonzero;stroke:none"
         id="path116"
         inkscape:connector-curvature="0" /><path
         d="m 1235.27,345.254 63.15,0 0,-78.879 c -17.14,-5.871 -35.99,-8.809 -56.54,-8.809 -22.56,0 -39.99,6.539 -52.31,19.622 -12.31,13.074 -18.46,31.726 -18.46,55.957 0,23.621 6.73,42 20.21,55.152 13.48,13.141 32.37,19.719 56.66,19.719 9.21,0 17.91,-0.868 26.07,-2.606 8.18,-1.734 15.31,-3.937 21.37,-6.601 l -12.5,-31.036 c -10.55,5.204 -22.13,7.813 -34.74,7.813 -11.55,0 -20.47,-3.758 -26.78,-11.266 -6.3,-7.504 -9.46,-18.23 -9.46,-32.183 0,-13.676 2.86,-24.106 8.56,-31.278 5.71,-7.175 13.93,-10.761 24.68,-10.761 5.86,0 11.27,0.566 16.21,1.703 l 0,22.926 -26.12,0 0,30.527"
         style="fill:#550520;fill-opacity:1;fill-rule:nonzero;stroke:none"
         id="path118"
         inkscape:connector-curvature="0" /><path
         d="m 1329.06,259.57 39.7422,0 0,146.34 -39.7422,0 0,-146.34 z"
         style="fill:#550520;fill-opacity:1;fill-rule:nonzero;stroke:none"
         id="path120"
         inkscape:connector-curvature="0" /><path
         d="m 1540.06,259.57 -51.86,0 -53.46,103.102 -0.9,0 c 1.27,-16.219 1.91,-28.598 1.91,-37.137 l 0,-65.965 -35.03,0 0,146.34 51.64,0 53.26,-101.695 0.6,0 c -0.94,14.746 -1.4,26.59 -1.4,35.531 l 0,66.164 35.24,0 0,-146.34"
         style="fill:#550520;fill-opacity:1;fill-rule:nonzero;stroke:none"
         id="path122"
         inkscape:connector-curvature="0" /><path
         d="m 1658.92,259.57 -86.87,0 0,146.34 86.87,0 0,-31.73 -47.34,0 0,-23.02 43.85,0 0,-31.734 -43.85,0 0,-27.625 47.34,0 0,-32.231"
         style="fill:#550520;fill-opacity:1;fill-rule:nonzero;stroke:none"
         id="path124"
         inkscape:connector-curvature="0" /><path
         d="m 1773.98,259.57 -86.87,0 0,146.34 86.87,0 0,-31.73 -47.34,0 0,-23.02 43.84,0 0,-31.734 -43.84,0 0,-27.625 47.34,0 0,-32.231"
         style="fill:#550520;fill-opacity:1;fill-rule:nonzero;stroke:none"
         id="path126"
         inkscape:connector-curvature="0" /><path
         d="m 1841.69,342.547 7.41,0 c 13.81,0 20.71,6.109 20.71,18.32 0,10.074 -6.77,15.117 -20.31,15.117 l -7.81,0 0,-33.437 z m 0,-29.727 0,-53.25 -39.54,0 0,146.34 47.94,0 c 39.78,0 59.66,-14.414 59.66,-43.238 0,-16.957 -8.27,-30.067 -24.82,-39.344 l 42.64,-63.758 -44.84,0 -31.03,53.25 -10.01,0"
         style="fill:#550520;fill-opacity:1;fill-rule:nonzero;stroke:none"
         id="path128"
         inkscape:connector-curvature="0" /><path
         d="m 1944.03,259.57 39.7383,0 0,146.34 -39.7383,0 0,-146.34 z"
         style="fill:#550520;fill-opacity:1;fill-rule:nonzero;stroke:none"
         id="path130"
         inkscape:connector-curvature="0" /><path
         d="m 2155.03,259.57 -51.86,0 -53.46,103.102 -0.89,0 c 1.26,-16.219 1.9,-28.598 1.9,-37.137 l 0,-65.965 -35.03,0 0,146.34 51.64,0 53.26,-101.695 0.6,0 c -0.94,14.746 -1.4,26.59 -1.4,35.531 l 0,66.164 35.24,0 0,-146.34"
         style="fill:#550520;fill-opacity:1;fill-rule:nonzero;stroke:none"
         id="path132"
         inkscape:connector-curvature="0" /><path
         d="m 2245.22,345.254 63.17,0 0,-78.879 c -17.15,-5.871 -36.01,-8.809 -56.56,-8.809 -22.56,0 -39.99,6.539 -52.3,19.622 -12.32,13.074 -18.47,31.726 -18.47,55.957 0,23.621 6.74,42 20.22,55.152 13.48,13.141 32.37,19.719 56.66,19.719 9.21,0 17.9,-0.868 26.07,-2.606 8.17,-1.734 15.3,-3.937 21.37,-6.601 l -12.51,-31.036 c -10.55,5.204 -22.12,7.813 -34.74,7.813 -11.54,0 -20.47,-3.758 -26.77,-11.266 -6.3,-7.504 -9.46,-18.23 -9.46,-32.183 0,-13.676 2.85,-24.106 8.56,-31.278 5.71,-7.175 13.93,-10.761 24.67,-10.761 5.87,0 11.28,0.566 16.22,1.703 l 0,22.926 -26.13,0 0,30.527"
         style="fill:#550520;fill-opacity:1;fill-rule:nonzero;stroke:none"
         id="path134"
         inkscape:connector-curvature="0" /></g></g></svg>