<?xml version="1.0" encoding="UTF-8" standalone="no"?>
<!-- Created with Inkscape (http://www.inkscape.org/) -->

<svg
   xmlns:dc="http://purl.org/dc/elements/1.1/"
   xmlns:cc="http://creativecommons.org/ns#"
   xmlns:rdf="http://www.w3.org/1999/02/22-rdf-syntax-ns#"
   xmlns:svg="http://www.w3.org/2000/svg"
   xmlns="http://www.w3.org/2000/svg"
   xmlns:sodipodi="http://sodipodi.sourceforge.net/DTD/sodipodi-0.dtd"
   xmlns:inkscape="http://www.inkscape.org/namespaces/inkscape"
   id="svg2"
   version="1.1"
   inkscape:version="0.91 r13725"
   xml:space="preserve"
   width="338.27499"
   height="173.325"
   viewBox="0 0 338.27499 173.325"
   sodipodi:docname="ECEN_primary_stacked.svg"><metadata
     id="metadata8"><rdf:RDF><cc:Work
         rdf:about=""><dc:format>image/svg+xml</dc:format><dc:type
           rdf:resource="http://purl.org/dc/dcmitype/StillImage" /><dc:title></dc:title></cc:Work></rdf:RDF></metadata><defs
     id="defs6"><clipPath
       clipPathUnits="userSpaceOnUse"
       id="clipPath18"><path
         d="m 913,584 0,803 881,0 0,-803 -881,0 z"
         id="path20"
         inkscape:connector-curvature="0" /></clipPath></defs><sodipodi:namedview
     pagecolor="#ffffff"
     bordercolor="#666666"
     borderopacity="1"
     objecttolerance="10"
     gridtolerance="10"
     guidetolerance="10"
     inkscape:pageopacity="0"
     inkscape:pageshadow="2"
     inkscape:window-width="640"
     inkscape:window-height="480"
     id="namedview4"
     showgrid="false"
     inkscape:current-layer="g10" /><g
     id="g10"
     inkscape:groupmode="layer"
     inkscape:label="ink_ext_XXXXXX"
     transform="matrix(1.25,0,0,-1.25,0,173.325)"><g
       id="g12"
       transform="scale(0.1,0.1)"><g
         id="g14"><g
           id="g16"
           clip-path="url(#clipPath18)"><path
             d="m 1039.42,704.605 628.566,0 0,633.559 -628.566,0 0,-633.559 z"
             style="fill:#560f24;fill-opacity:1;fill-rule:nonzero;stroke:none"
             id="path22"
             inkscape:connector-curvature="0" /><path
             d="m 1584.53,1086.03 -49.39,0 -1.19,-2.45 -33.87,-70.48 -33.96,70.51 -1.17,2.42 -52.09,0 0,-32.64 11.99,0 0,-100.898 -12.66,0 0,-32.64 59.27,0 0,32.64 -13.05,0 0,71.608 37.84,-78.053 3.86,-7.942 3.88,7.942 38.24,78.243 0,-71.798 -12.66,0 0,-32.64 59.27,0 0,32.64 -13.03,0 0,100.898 13.03,0 0,32.64 -4.31,0"
             style="fill:#ffffff;fill-opacity:1;fill-rule:nonzero;stroke:none"
             id="path24"
             inkscape:connector-curvature="0" /><path
             d="m 1219.09,1002.09 -24.5,0 12.24,28.32 12.26,-28.32 z m 71.21,-49.504 -13.47,0 -43.85,101.364 8.49,0 0,32.66 -70.51,0 0,-32.66 9.7,0 -43.84,-101.364 -18.22,0 0,-32.648 63.9,0 0,32.648 -9.31,0 7.28,16.859 52.74,0 7.26,-16.859 -9.8,0 0,-32.648 63.94,0 0,32.648 -4.31,0"
             style="fill:#ffffff;fill-opacity:1;fill-rule:nonzero;stroke:none"
             id="path26"
             inkscape:connector-curvature="0" /><path
             d="m 1530.91,1212.73 -360.46,0 0,-104.81 71.22,0 0,40.19 75.86,0 0,-250.274 -40.2,0 0,-71.238 151.61,0 0,71.238 -40.17,0 0,250.274 75.38,0 0,-39.73 71.66,0 0,104.35 -4.9,0"
             style="fill:#ffffff;fill-opacity:1;fill-rule:nonzero;stroke:none"
             id="path28"
             inkscape:connector-curvature="0" /><path
             d="m 1399.3,868.598 15.01,15.476 0,-42.402 -15.01,14.348 0,12.578"
             style="fill:#b2b1b1;fill-opacity:1;fill-rule:nonzero;stroke:none"
             id="path30"
             inkscape:connector-curvature="0" /><path
             d="m 1374.27,882.938 -15.04,-14.793 0,309.485 15.04,-14.99 0,-279.702"
             style="fill:#b2b1b1;fill-opacity:1;fill-rule:nonzero;stroke:none"
             id="path32"
             inkscape:connector-curvature="0" /><path
             d="m 1200.57,1183.06 -15.46,15.03 328.57,0 -19.43,-15.03 -293.68,0"
             style="fill:#b2b1b1;fill-opacity:1;fill-rule:nonzero;stroke:none"
             id="path34"
             inkscape:connector-curvature="0" /><path
             d="m 1521.65,1122.13 -15.03,14.33 0,38.22 15.03,15.45 0,-68"
             style="fill:#b2b1b1;fill-opacity:1;fill-rule:nonzero;stroke:none"
             id="path36"
             inkscape:connector-curvature="0" /><path
             d="m 1700.75,718.289 2.34,0 c 1.57,0 2.93,0.211 2.93,2.129 0,1.68 -1.54,1.953 -2.9,1.953 l -2.37,0 0,-4.082 z m -2.65,6.109 5.3,0 c 3.42,0 5.27,-1.187 5.27,-4.187 0,-2.441 -1.39,-3.629 -3.73,-3.844 l 3.84,-6.246 -2.72,0 -3.7,6.145 -1.61,0 0,-6.145 -2.65,0 0,14.277 z m 14.38,-7.187 c 0,5.894 -4.26,10.152 -9.53,10.152 -5.27,0 -9.53,-4.258 -9.53,-10.152 0,-5.902 4.26,-10.16 9.53,-10.16 5.27,0 9.53,4.258 9.53,10.16 m -22.13,0 c 0,6.941 5.65,12.594 12.6,12.594 6.94,0 12.6,-5.653 12.6,-12.594 0,-6.949 -5.66,-12.602 -12.6,-12.602 -6.95,0 -12.6,5.653 -12.6,12.602"
             style="fill:#560f24;fill-opacity:1;fill-rule:nonzero;stroke:none"
             id="path38"
             inkscape:connector-curvature="0" /></g></g><path
         d="m 292.898,92.4609 c -1.558,6.5079 -3.125,10.5391 -5.078,12.7581 -2.34,2.601 -5.203,3.383 -13.66,3.383 l -7.031,0 0,-62.352 c 0,-10.8008 1.172,-11.8398 13.016,-12.75 l 0,-4.168 -40.606,0 0,4.168 c 11.191,0.9102 12.492,1.9492 12.492,12.75 l 0,62.352 -5.859,0 c -10.676,0 -13.145,-1.172 -14.961,-3.653 -1.953,-2.211 -3.391,-6.367 -4.949,-12.617 l -4.426,0 c 0.519,8.848 1.301,18.09 1.562,24.859 l 2.989,0 c 1.953,-2.992 3.652,-3.25 7.297,-3.25 l 52.058,0 c 3.391,0 4.949,0.77 7.156,3.25 l 3,0 c 0,-5.601 0.645,-16.402 1.297,-24.4722 l -4.297,-0.2579"
         style="fill:#550520;fill-opacity:1;fill-rule:nonzero;stroke:none"
         id="path40"
         inkscape:connector-curvature="0" /><path
         d="m 412.59,50.5508 c -0.781,-5.211 -3.379,-17.3125 -4.555,-21.2188 l -65.074,0 0,4.168 c 11.316,0.9102 12.488,1.8203 12.488,12.75 l 0,50.6406 c 0,11.4494 -1.172,11.9684 -10.676,12.7504 l 0,4.3 60,0 c 0.137,-2.609 0.786,-11.722 1.313,-19.2691 l -4.426,-0.6524 c -1.172,4.9493 -2.734,8.7185 -4.824,11.1995 -2.078,2.472 -5.598,3.383 -13.66,3.383 l -7.551,0 c -4.562,0 -4.941,-0.262 -4.941,-4.43 l 0,-28.2423 10.019,0 c 11.192,0 12.488,0.7812 14.192,9.7617 l 4.421,0 0,-25.7695 -4.421,0 c -1.704,9.3672 -3,9.8867 -14.192,9.8867 l -10.019,0 0,-23.168 c 0,-6.2422 0.644,-9.2304 3.117,-10.6718 2.344,-1.2969 6.902,-1.4297 12.234,-1.4297 7.942,0 12.235,0.9101 15.235,4.3007 2.468,2.7305 4.816,7.0196 7.023,12.4922 l 4.297,-0.7812"
         style="fill:#550520;fill-opacity:1;fill-rule:nonzero;stroke:none"
         id="path42"
         inkscape:connector-curvature="0" /><path
         d="m 503.262,29.332 0,4.168 c 8.457,1.4297 8.332,2.9883 5.984,7.2891 -1.949,3.3828 -5.984,10.0195 -14.969,24.8593 -6.242,-9.3671 -11.582,-17.957 -14.836,-24.0781 -3.125,-5.6015 -2.214,-6.6406 6.504,-8.0703 l 0,-4.168 -31.621,0 0,4.168 c 7.285,0.7813 11.711,2.7305 15.489,7.2891 4.164,5.1992 12.367,16.1406 21.21,29.6718 -6.375,10.5508 -12.097,19.7891 -18.093,29.2891 -4.422,7.031 -7.285,8.98 -16.27,9.891 l 0,4.3 36.707,0 0,-4.3 c -7.547,-1.301 -7.422,-2.731 -5.722,-5.86 2.992,-5.3318 7.414,-12.3591 12.882,-21.0818 4.563,6.3828 8.848,13.2696 12.11,19.2618 2.722,5.078 2.336,6.379 -6.25,7.68 l 0,4.3 30.847,0 0,-4.3 c -8.855,-1.039 -11.98,-2.469 -17.437,-9.243 -3.906,-4.816 -8.984,-11.8394 -16.145,-22.2574 7.422,-11.7109 14.051,-22.5117 21.211,-33.3203 5.606,-8.7187 8.465,-10.4101 17.442,-11.3203 l 0,-4.168 -39.043,0"
         style="fill:#550520;fill-opacity:1;fill-rule:nonzero;stroke:none"
         id="path44"
         inkscape:connector-curvature="0" /><path
         d="m 624.641,94.5391 -0.395,0 c -3.777,-10.0196 -7.293,-20.168 -10.933,-29.9297 l 21.609,0 -10.281,29.9297 z m 11.707,-65.2071 0,4.168 c 7.812,1.1719 8.593,2.6016 6.765,8.0703 -1.425,4.2891 -3.64,10.4102 -5.984,16.6602 l -25.899,0 c -1.687,-4.8203 -3.515,-9.7696 -5.078,-14.9688 -2.214,-7.0312 -1.562,-8.5898 7.942,-9.7617 l 0,-4.168 -28.774,0 0,4.168 c 8.469,1.1719 10.157,2.3398 14.582,13.5313 l 26.692,67.3007 5.719,1.559 c 8.332,-22.6527 16.535,-46.0824 24.992,-68.4691 4.297,-11.4531 5.988,-12.8828 14.316,-13.9219 l 0,-4.168 -35.273,0"
         style="fill:#550520;fill-opacity:1;fill-rule:nonzero;stroke:none"
         id="path46"
         inkscape:connector-curvature="0" /><path
         d="m 763.594,93.2383 c -2.61,8.2027 -7.031,17.5707 -17.832,17.5707 -8.203,0 -13.282,-5.977 -13.282,-13.2699 0,-8.0703 5.34,-12.3672 16.407,-17.8282 12.363,-6.25 22.773,-13.0195 22.773,-26.5625 0,-14.4492 -12.234,-25.7695 -30.722,-25.7695 -4.942,0 -9.368,0.7813 -12.879,1.9531 -3.516,1.0391 -5.864,1.9571 -7.422,2.7383 -1.172,3.1211 -2.864,14.0586 -3.774,21.3399 l 4.426,1.3007 c 2.344,-8.1914 9.375,-22.25 22.129,-22.25 8.723,0 14.055,5.7305 14.055,14.4493 0,8.3281 -6.25,13.1406 -16.008,18.2187 -11.582,5.9922 -22.254,12.8828 -22.254,26.1602 0,13.5429 10.801,24.6019 28.633,24.6019 7.547,0 14.187,-2.219 17.566,-3.262 0.528,-4.809 1.301,-10.277 2.344,-18.4806 l -4.16,-0.9101"
         style="fill:#550520;fill-opacity:1;fill-rule:nonzero;stroke:none"
         id="path48"
         inkscape:connector-curvature="0" /><path
         d="m 924.648,94.5391 -0.39,0 c -3.77,-10.0196 -7.285,-20.168 -10.93,-29.9297 l 21.606,0 -10.286,29.9297 z m 11.719,-65.2071 0,4.168 c 7.813,1.1719 8.594,2.6016 6.77,8.0703 -1.438,4.2891 -3.645,10.4102 -5.989,16.6602 l -25.898,0 c -1.699,-4.8203 -3.516,-9.7696 -5.078,-14.9688 -2.219,-7.0312 -1.563,-8.5898 7.937,-9.7617 l 0,-4.168 -28.765,0 0,4.168 c 8.465,1.1719 10.152,2.3398 14.578,13.5313 l 26.68,67.3007 5.734,1.559 c 8.328,-22.6527 16.519,-46.0824 24.988,-68.4691 4.297,-11.4531 5.985,-12.8828 14.317,-13.9219 l 0,-4.168 -35.274,0"
         style="fill:#550520;fill-opacity:1;fill-rule:nonzero;stroke:none"
         id="path50"
         inkscape:connector-curvature="0" /><path
         d="m 1040.96,98.582 c 0,-6.5117 3.64,-11.0703 12.1,-17.5703 4.42,3.3789 7.67,8.5899 7.67,16.2696 0,6.8907 -3.77,13.2697 -10.28,13.2697 -5.46,0 -9.49,-5.332 -9.49,-11.969 z m 27.46,-51.1601 c -8.6,8.9765 -15.88,15.4883 -27.21,25.1289 -5.33,-4.6914 -7.8,-10.2891 -7.8,-15.8789 0,-12.3711 8.97,-18.3633 17.57,-18.3633 6.89,0 13.66,4.4297 17.44,9.1133 z m 39.04,33.1992 c -8.33,-0.7813 -10.67,-2.8711 -15.22,-8.9922 -3.65,-4.8086 -6.91,-9.8906 -11.2,-16 7.42,-7.168 16.79,-18.2187 22.12,-26.8203 l -0.78,-1.4297 c -10.8,0.1328 -18.47,3.1328 -20.04,4.8203 -1.69,1.8203 -6.12,6.7696 -10.67,11.4492 -8.59,-11.3164 -17.05,-16.1367 -25.9,-16.1367 -17.19,0 -26.69,12.7578 -26.69,24.0781 0,11.1993 7.3,16.1407 18.75,24.0821 -5.59,5.3398 -8.98,10.9297 -8.98,18.3476 0,11.7185 10.54,21.3515 22.77,21.3515 12.24,0 21.09,-7.812 21.09,-18.4804 0,-4.8203 -2.34,-8.332 -5.46,-10.9414 -2.61,-2.3398 -6.13,-4.8086 -10.55,-7.8086 4.03,-3.3789 12.11,-10.4101 20.83,-19 2.6,4.0391 4.81,7.8086 6.89,12.6289 2.74,5.9805 1.57,7.6797 -7.42,8.8516 l 0.14,4.1602 30.32,0 0,-4.1602"
         style="fill:#550520;fill-opacity:1;fill-rule:nonzero;stroke:none"
         id="path52"
         inkscape:connector-curvature="0" /><path
         d="m 1219.85,29.332 0,4.168 c 10.16,1.0391 10.68,1.9492 10.68,14.5703 l -0.39,51.1602 -0.52,0 -29.82,-68.9805 -3.37,0 -27.47,67.5508 -0.39,0 -1.69,-35.1524 c -0.52,-10.7968 -0.52,-16.6601 -0.13,-21.207 0.39,-5.9922 3.12,-7.0312 11.84,-7.8125 l 0,-4.2969 -30.97,0 0,4.2969 c 7.42,0.6524 9.89,2.7305 10.67,7.5508 0.78,4.2891 1.69,10.6719 2.74,24.3398 l 1.95,26.1602 c 1.17,15.6213 0.25,16.9223 -11.2,17.9613 l 0,4.3 24.99,0 26.69,-59.8707 27.19,59.8707 24.74,0 0,-4.3 c -10.81,-1.039 -11.45,-1.692 -11.2,-13.5316 l 1.31,-48.0391 c 0.25,-12.6211 0.78,-13.5312 11.45,-14.5703 l 0,-4.168 -37.1,0"
         style="fill:#550520;fill-opacity:1;fill-rule:nonzero;stroke:none"
         id="path54"
         inkscape:connector-curvature="0" /><path
         d="m 1461.2,109.641 c -7.42,-0.391 -10.55,-2.731 -11.2,-7.68 -0.52,-3.7696 -0.91,-8.8516 -0.91,-19.129 l 0,-12.8906 c 0,-14.3125 -2.21,-25.3828 -9.63,-33.1914 -5.98,-6.2383 -14.84,-9.3711 -23.82,-9.3711 -8.2,0 -16.14,1.8203 -22.25,6.5117 -7.42,5.8477 -11.07,15.4883 -11.07,30.7188 l 0,31.3594 c 0,12.1132 -1.17,12.7612 -11.06,13.6722 l 0,4.3 37.23,0 0,-4.3 c -9.77,-0.782 -10.94,-1.559 -10.94,-13.6722 l 0,-28.7579 c 0,-20.039 7.42,-31.6289 22.25,-31.6289 16.66,0 23.18,13.1485 23.18,34.8789 l 0,12.3711 c 0,10.1485 -0.66,15.3594 -1.17,19.387 -0.78,4.691 -3.65,6.902 -12.63,7.422 l 0,4.3 32.02,0 0,-4.3"
         style="fill:#550520;fill-opacity:1;fill-rule:nonzero;stroke:none"
         id="path56"
         inkscape:connector-curvature="0" /><path
         d="m 1595.46,109.77 c -7.03,-0.391 -9.89,-2.211 -10.55,-8.071 -0.52,-3.8982 -1.03,-10.0193 -1.03,-21.7381 l 0,-51.9296 -5.47,0 -54.67,66.1171 -0.26,0 0,-30.5781 c 0,-11.5898 0.52,-17.4414 0.91,-21.3515 0.65,-6.1172 3.13,-8.1993 12.49,-8.7188 l 0,-4.168 -31.49,0 0,4.168 c 7.29,0.5195 10.41,2.4688 11.07,8.332 0.39,4.2969 1.03,10.1485 1.03,21.7383 l 0,27.7188 c 0,8.8519 -0.13,10.6719 -2.6,13.6599 -2.6,3.262 -5.34,4.301 -11.19,4.821 l 0,4.171 22.38,0 51.42,-60.0113 0.39,0 0,26.0312 c 0,11.7188 -0.65,17.8399 -0.92,21.6091 -0.78,5.602 -3.51,7.68 -12.88,8.2 l 0,4.171 31.37,0 0,-4.171"
         style="fill:#550520;fill-opacity:1;fill-rule:nonzero;stroke:none"
         id="path58"
         inkscape:connector-curvature="0" /><path
         d="m 1641.86,29.332 0,4.168 c 10.02,0.9102 11.2,1.6914 11.2,12.75 l 0,50.6406 c 0,11.0584 -1.18,11.9684 -11.2,12.7504 l 0,4.3 37.36,0 0,-4.3 c -10.03,-0.782 -11.07,-1.692 -11.07,-12.7504 l 0,-50.6406 c 0,-10.9297 1.04,-11.8398 11.07,-12.75 l 0,-4.168 -37.36,0"
         style="fill:#550520;fill-opacity:1;fill-rule:nonzero;stroke:none"
         id="path60"
         inkscape:connector-curvature="0" /><path
         d="m 1814.02,109.641 c -8.59,-1.039 -10.81,-2.469 -15.88,-14.5824 -4.04,-9.5 -16.53,-40.207 -26.55,-67.1602 l -5.59,0 c -8.86,23.8204 -20.57,54.0235 -26.69,69.5118 -3.9,9.8908 -5.99,11.4488 -13.93,12.2308 l 0,4.3 36.32,0 0,-4.3 c -9.5,-1.301 -9.63,-2.602 -7.55,-8.2 3.64,-10.0191 13.54,-35.9215 19.79,-51.8004 l 0.25,0 c 7.03,17.961 14.06,36.6992 17.83,48.6797 2.86,8.4607 2.47,10.0197 -8.06,11.3207 l 0,4.3 30.06,0 0,-4.3"
         style="fill:#550520;fill-opacity:1;fill-rule:nonzero;stroke:none"
         id="path62"
         inkscape:connector-curvature="0" /><path
         d="m 1927.59,50.5508 c -0.78,-5.211 -3.38,-17.3125 -4.55,-21.2188 l -65.08,0 0,4.168 c 11.32,0.9102 12.49,1.8203 12.49,12.75 l 0,50.6406 c 0,11.4494 -1.17,11.9684 -10.67,12.7504 l 0,4.3 60.01,0 c 0.12,-2.609 0.78,-11.722 1.29,-19.2691 l -4.42,-0.6524 c -1.17,4.9493 -2.73,8.7185 -4.81,11.1995 -2.09,2.472 -5.6,3.383 -13.68,3.383 l -7.54,0 c -4.56,0 -4.95,-0.262 -4.95,-4.43 l 0,-28.2423 10.02,0 c 11.19,0 12.5,0.7812 14.19,9.7617 l 4.43,0 0,-25.7695 -4.43,0 c -1.69,9.3672 -3,9.8867 -14.19,9.8867 l -10.02,0 0,-23.168 c 0,-6.2422 0.65,-9.2304 3.13,-10.6718 2.34,-1.2969 6.89,-1.4297 12.23,-1.4297 7.93,0 12.23,0.9101 15.23,4.3007 2.47,2.7305 4.81,7.0196 7.03,12.4922 l 4.29,-0.7812"
         style="fill:#550520;fill-opacity:1;fill-rule:nonzero;stroke:none"
         id="path64"
         inkscape:connector-curvature="0" /><path
         d="m 2003.67,70.7305 c 5.99,0 10.29,1.039 13.27,3.5078 4.56,3.7734 6.52,8.9805 6.52,15.75 0,13.9217 -8.33,19.1327 -16.66,19.1327 -3.39,0 -5.34,-0.652 -6.25,-1.301 -0.91,-0.781 -1.17,-2.211 -1.17,-5.211 l 0,-31.8785 4.29,0 z m 48.55,-42.5703 c -1.04,0 -2.6,0.1289 -4.04,0.1289 -14.05,0.6523 -19.25,4.0429 -24.72,12.3711 -3.78,5.7187 -7.82,13.1406 -11.58,19.7812 -2.09,3.9102 -4.44,5.4688 -9.51,5.4688 l -2.99,0 0,-19.6602 c 0,-10.668 1.17,-11.8398 11.19,-12.75 l 0,-4.168 -37.48,0 0,4.168 c 10.02,0.9102 11.45,1.9492 11.45,12.75 l 0,50.8984 c 0,10.6716 -1.17,11.7106 -10.94,12.4926 l 0,4.3 35.01,0 c 10.68,0 17.19,-1.312 22.4,-4.691 5.2,-3.512 8.72,-9.238 8.72,-17.3086 0,-11.3203 -7.43,-17.7031 -16.41,-21.4805 2.09,-4.0312 7.03,-12.75 10.94,-18.6093 4.69,-7.1602 7.42,-11.0625 10.28,-13.9297 3,-3.3828 5.47,-4.9414 8.46,-5.8516 l -0.78,-3.9101"
         style="fill:#550520;fill-opacity:1;fill-rule:nonzero;stroke:none"
         id="path66"
         inkscape:connector-curvature="0" /><path
         d="m 2143.28,93.2383 c -2.61,8.2027 -7.03,17.5707 -17.83,17.5707 -8.2,0 -13.28,-5.977 -13.28,-13.2699 0,-8.0703 5.34,-12.3672 16.4,-17.8282 12.37,-6.25 22.78,-13.0195 22.78,-26.5625 0,-14.4492 -12.24,-25.7695 -30.72,-25.7695 -4.95,0 -9.37,0.7813 -12.89,1.9531 -3.51,1.0391 -5.86,1.9571 -7.42,2.7383 -1.17,3.1211 -2.86,14.0586 -3.77,21.3399 l 4.43,1.3007 c 2.34,-8.1914 9.37,-22.25 22.13,-22.25 8.72,0 14.05,5.7305 14.05,14.4493 0,8.3281 -6.25,13.1406 -16.01,18.2187 -11.58,5.9922 -22.25,12.8828 -22.25,26.1602 0,13.5429 10.8,24.6019 28.63,24.6019 7.55,0 14.19,-2.219 17.57,-3.262 0.53,-4.809 1.3,-10.277 2.34,-18.4806 l -4.16,-0.9101"
         style="fill:#550520;fill-opacity:1;fill-rule:nonzero;stroke:none"
         id="path68"
         inkscape:connector-curvature="0" /><path
         d="m 2198.03,29.332 0,4.168 c 10.03,0.9102 11.2,1.6914 11.2,12.75 l 0,50.6406 c 0,11.0584 -1.17,11.9684 -11.2,12.7504 l 0,4.3 37.36,0 0,-4.3 c -10.03,-0.782 -11.06,-1.692 -11.06,-12.7504 l 0,-50.6406 c 0,-10.9297 1.03,-11.8398 11.06,-12.75 l 0,-4.168 -37.36,0"
         style="fill:#550520;fill-opacity:1;fill-rule:nonzero;stroke:none"
         id="path70"
         inkscape:connector-curvature="0" /><path
         d="m 2354.17,92.4609 c -1.56,6.5079 -3.13,10.5391 -5.07,12.7581 -2.34,2.601 -5.21,3.383 -13.67,3.383 l -7.03,0 0,-62.352 c 0,-10.8008 1.17,-11.8398 13.02,-12.75 l 0,-4.168 -40.61,0 0,4.168 c 11.19,0.9102 12.49,1.9492 12.49,12.75 l 0,62.352 -5.85,0 c -10.67,0 -13.15,-1.172 -14.97,-3.653 -1.95,-2.211 -3.39,-6.367 -4.95,-12.617 l -4.42,0 c 0.52,8.848 1.29,18.09 1.56,24.859 l 3,0 c 1.95,-2.992 3.64,-3.25 7.28,-3.25 l 52.06,0 c 3.39,0 4.95,0.77 7.16,3.25 l 3,0 c 0,-5.601 0.65,-16.402 1.3,-24.4722 l -4.3,-0.2579"
         style="fill:#550520;fill-opacity:1;fill-rule:nonzero;stroke:none"
         id="path72"
         inkscape:connector-curvature="0" /><path
         d="m 2486.63,109.641 c -8.59,-0.911 -10.8,-2.86 -15.61,-10.6722 -5.21,-8.3282 -8.99,-14.5782 -15.24,-26.5469 -1.82,-3.3906 -2.34,-4.9531 -2.34,-8.7305 l 0,-17.0508 c 0,-11.4492 1.04,-12.2304 12.75,-13.1406 l 0,-4.168 -40.21,0 0,4.168 c 11.19,0.7813 12.36,1.6914 12.36,13.1406 l 0,15.4883 c 0,3 -0.52,4.3008 -2.08,7.4219 -3.91,7.418 -8.72,16.0078 -16.14,29.1601 -5.07,8.7191 -6.9,10.0191 -14.32,10.9301 l 0,4.3 34.88,0 0,-4.3 c -8.72,-1.172 -8.58,-2.731 -6.25,-7.289 4.95,-9.5004 10.55,-19.52 15.88,-29.1528 4.17,7.8125 10.94,20.1719 14.19,28.1098 2.47,5.73 2.22,7.293 -7.55,8.332 l 0,4.3 29.68,0 0,-4.3"
         style="fill:#550520;fill-opacity:1;fill-rule:nonzero;stroke:none"
         id="path74"
         inkscape:connector-curvature="0" /><path
         d="m 134.949,408.777 -86.8826,0 0,146.344 86.8826,0 0,-31.734 -47.3474,0 0,-23.02 43.8474,0 0,-31.73 -43.8474,0 0,-27.629 47.3474,0 0,-32.231"
         style="fill:#550520;fill-opacity:1;fill-rule:nonzero;stroke:none"
         id="path76"
         inkscape:connector-curvature="0" /><path
         d="m 163.121,408.777 0,146.344 39.535,0 0,-114.41 56.36,0 0,-31.934 -95.895,0"
         style="fill:#550520;fill-opacity:1;fill-rule:nonzero;stroke:none"
         id="path78"
         inkscape:connector-curvature="0" /><path
         d="m 367.328,408.777 -86.883,0 0,146.344 86.883,0 0,-31.734 -47.348,0 0,-23.02 43.848,0 0,-31.73 -43.848,0 0,-27.629 47.348,0 0,-32.231"
         style="fill:#550520;fill-opacity:1;fill-rule:nonzero;stroke:none"
         id="path80"
         inkscape:connector-curvature="0" /><path
         d="m 458.32,524.793 c -9.402,0 -16.75,-3.855 -22.019,-11.563 -5.27,-7.71 -7.906,-18.335 -7.906,-31.882 0,-28.16 10.707,-42.239 32.132,-42.239 6.469,0 12.743,0.899 18.821,2.7 6.066,1.8 12.172,3.968 18.312,6.507 l 0,-33.433 c -12.211,-5.403 -26.023,-8.106 -41.437,-8.106 -22.09,0 -39.028,6.407 -50.801,19.215 -11.777,12.817 -17.668,31.328 -17.668,55.559 0,15.144 2.851,28.457 8.559,39.937 5.703,11.473 13.914,20.301 24.625,26.473 10.707,6.172 23.304,9.266 37.785,9.266 15.82,0 30.929,-3.446 45.343,-10.317 l -12.113,-31.133 c -5.398,2.539 -10.808,4.676 -16.211,6.411 -5.41,1.738 -11.211,2.605 -17.422,2.605"
         style="fill:#550520;fill-opacity:1;fill-rule:nonzero;stroke:none"
         id="path82"
         inkscape:connector-curvature="0" /><path
         d="m 595.023,408.777 -39.539,0 0,114.016 -35.734,0 0,32.328 110.91,0 0,-32.328 -35.637,0 0,-114.016"
         style="fill:#550520;fill-opacity:1;fill-rule:nonzero;stroke:none"
         id="path84"
         inkscape:connector-curvature="0" /><path
         d="m 690.395,491.758 7.414,0 c 13.812,0 20.707,6.105 20.707,18.316 0,10.074 -6.758,15.117 -20.309,15.117 l -7.812,0 0,-33.433 z m 0,-29.731 0,-53.25 -39.536,0 0,146.344 47.946,0 c 39.769,0 59.652,-14.414 59.652,-43.242 0,-16.953 -8.262,-30.066 -24.824,-39.344 l 42.656,-63.758 -44.844,0 -31.039,53.25 -10.011,0"
         style="fill:#550520;fill-opacity:1;fill-rule:nonzero;stroke:none"
         id="path86"
         inkscape:connector-curvature="0" /><path
         d="m 792.734,408.777 39.7383,0 0,146.344 -39.7383,0 0,-146.344 z"
         style="fill:#550520;fill-opacity:1;fill-rule:nonzero;stroke:none"
         id="path88"
         inkscape:connector-curvature="0" /><path
         d="m 929.258,524.793 c -9.406,0 -16.746,-3.855 -22.024,-11.563 -5.269,-7.71 -7.898,-18.335 -7.898,-31.882 0,-28.16 10.703,-42.239 32.129,-42.239 6.465,0 12.746,0.899 18.816,2.7 6.067,1.8 12.18,3.968 18.313,6.507 l 0,-33.433 c -12.207,-5.403 -26.016,-8.106 -41.438,-8.106 -22.09,0 -39.019,6.407 -50.801,19.215 -11.777,12.817 -17.664,31.328 -17.664,55.559 0,15.144 2.852,28.457 8.555,39.937 5.715,11.473 13.914,20.301 24.629,26.473 10.715,6.172 23.301,9.266 37.781,9.266 15.821,0 30.93,-3.446 45.344,-10.317 l -12.109,-31.133 c -5.403,2.539 -10.813,4.676 -16.211,6.411 -5.41,1.738 -11.211,2.605 -17.422,2.605"
         style="fill:#550520;fill-opacity:1;fill-rule:nonzero;stroke:none"
         id="path90"
         inkscape:connector-curvature="0" /><path
         d="m 1074.61,468.637 -6.3,24.023 c -1.47,5.336 -3.26,12.246 -5.36,20.719 -2.1,8.473 -3.49,14.551 -4.15,18.223 -0.61,-3.411 -1.79,-9.016 -3.56,-16.821 -1.76,-7.808 -5.69,-23.191 -11.75,-46.144 l 31.12,0 z m 15.42,-59.86 -7.21,27.426 -47.55,0 -7.41,-27.426 -43.434,0 47.744,146.946 52.75,0 48.35,-146.946 -43.24,0"
         style="fill:#550520;fill-opacity:1;fill-rule:nonzero;stroke:none"
         id="path92"
         inkscape:connector-curvature="0" /><path
         d="m 1151.06,408.777 0,146.344 39.54,0 0,-114.41 56.35,0 0,-31.934 -95.89,0"
         style="fill:#550520;fill-opacity:1;fill-rule:nonzero;stroke:none"
         id="path94"
         inkscape:connector-curvature="0" /><path
         d="m 1384.88,522.188 c 0,3.269 -0.94,5.625 -2.85,7.058 -1.89,1.43 -4.29,2.149 -7.15,2.149 -2.81,0 -5.26,-0.836 -7.36,-2.5 -2.1,-1.668 -3.15,-4.34 -3.15,-8.008 0,-5.004 2.93,-10.176 8.8,-15.52 3.81,2.141 6.71,4.692 8.71,7.664 2.01,2.969 3,6.02 3,9.157 z m -29.52,-69.969 c 0,-4.203 1.5,-7.641 4.5,-10.309 3.01,-2.668 6.98,-4.004 11.92,-4.004 3.8,0 7.14,0.5 10.01,1.5 2.86,1 5.07,2.137 6.6,3.407 l -24.83,25.222 c -5.46,-4.07 -8.2,-9.347 -8.2,-15.816 z m 66.66,-43.442 -9.91,10.211 c -6,-3.804 -10.93,-6.425 -14.76,-7.855 -3.83,-1.438 -8.14,-2.524 -12.92,-3.254 -4.76,-0.738 -10.22,-1.102 -16.36,-1.102 -10.54,0 -19.87,1.801 -27.97,5.403 -8.12,3.605 -14.32,8.644 -18.63,15.113 -4.3,6.477 -6.45,13.848 -6.45,22.125 0,17.48 9.07,30.863 27.23,40.141 -4.14,4.668 -7.36,9.625 -9.66,14.863 -2.31,5.234 -3.46,11.164 -3.46,17.766 0,10.675 4.12,19.152 12.36,25.425 8.25,6.274 19.57,9.407 33.99,9.407 14.08,0 25.04,-3.122 32.88,-9.356 7.84,-6.238 11.76,-14.73 11.76,-25.476 0,-7.407 -2.12,-14.266 -6.35,-20.571 -4.24,-6.304 -10.93,-12.23 -20.08,-17.765 l 19.92,-18.922 c 5.01,7.675 8.48,16.351 10.41,26.023 l 40.65,0 c -2,-9.207 -5.16,-18.43 -9.46,-27.676 -4.31,-9.242 -9.17,-17.168 -14.57,-23.765 l 32.04,-30.735 -50.66,0"
         style="fill:#550520;fill-opacity:1;fill-rule:nonzero;stroke:none"
         id="path96"
         inkscape:connector-curvature="0" /><path
         d="m 1605.8,524.793 c -9.4,0 -16.75,-3.855 -22.02,-11.563 -5.27,-7.71 -7.9,-18.335 -7.9,-31.882 0,-28.16 10.7,-42.239 32.13,-42.239 6.46,0 12.74,0.899 18.82,2.7 6.06,1.8 12.17,3.968 18.31,6.507 l 0,-33.433 c -12.21,-5.403 -26.02,-8.106 -41.44,-8.106 -22.09,0 -39.02,6.407 -50.8,19.215 -11.78,12.817 -17.67,31.328 -17.67,55.559 0,15.144 2.86,28.457 8.56,39.937 5.71,11.473 13.92,20.301 24.63,26.473 10.71,6.172 23.3,9.266 37.78,9.266 15.82,0 30.93,-3.446 45.34,-10.317 l -12.11,-31.133 c -5.4,2.539 -10.81,4.676 -16.21,6.411 -5.41,1.738 -11.21,2.605 -17.42,2.605"
         style="fill:#550520;fill-opacity:1;fill-rule:nonzero;stroke:none"
         id="path98"
         inkscape:connector-curvature="0" /><path
         d="m 1706.62,482.145 c 0,-28.29 9.84,-42.442 29.53,-42.442 10.01,0 17.43,3.442 22.27,10.317 4.84,6.867 7.26,17.582 7.26,32.125 0,14.621 -2.46,25.414 -7.36,32.382 -4.9,6.977 -12.23,10.461 -21.97,10.461 -19.82,0 -29.73,-14.277 -29.73,-42.843 z m 100.7,0 c 0,-24.618 -6.04,-43.336 -18.12,-56.153 -12.08,-12.808 -29.77,-19.215 -53.05,-19.215 -22.96,0 -40.55,6.438 -52.8,19.317 -12.25,12.879 -18.37,31.629 -18.37,56.258 0,24.355 6.08,42.953 18.27,55.8 12.18,12.848 29.88,19.27 53.1,19.27 23.29,0 40.94,-6.375 52.95,-19.117 12.01,-12.75 18.02,-31.465 18.02,-56.16"
         style="fill:#550520;fill-opacity:1;fill-rule:nonzero;stroke:none"
         id="path100"
         inkscape:connector-curvature="0" /><path
         d="m 1897.57,408.777 -29.93,105.403 -0.9,0 c 1.39,-17.953 2.1,-31.899 2.1,-41.836 l 0,-63.567 -35.03,0 0,146.344 52.65,0 30.52,-103.902 0.8,0 29.93,103.902 52.76,0 0,-146.344 -36.34,0 0,64.161 c 0,3.339 0.05,7.039 0.15,11.113 0.1,4.066 0.55,14.047 1.35,29.929 l -0.9,0 -29.52,-105.203 -37.64,0"
         style="fill:#550520;fill-opacity:1;fill-rule:nonzero;stroke:none"
         id="path102"
         inkscape:connector-curvature="0" /><path
         d="m 2072.02,489.559 7.21,0 c 5.94,0 10.66,1.664 14.17,5 3.49,3.339 5.25,7.945 5.25,13.82 0,9.871 -5.48,14.812 -16.41,14.812 l -10.22,0 0,-33.632 z m 66.67,19.011 c 0,-16.343 -4.82,-28.972 -14.46,-37.882 -9.65,-8.907 -23.34,-13.368 -41.1,-13.368 l -11.11,0 0,-48.543 -39.53,0 0,146.344 50.64,0 c 18.49,0 32.37,-4.039 41.65,-12.113 9.27,-8.074 13.91,-19.555 13.91,-34.438"
         style="fill:#550520;fill-opacity:1;fill-rule:nonzero;stroke:none"
         id="path104"
         inkscape:connector-curvature="0" /><path
         d="m 2284.98,555.121 0,-88.086 c 0,-19.156 -5.42,-33.984 -16.26,-44.492 -10.85,-10.516 -26.47,-15.766 -46.9,-15.766 -19.95,0 -35.29,5.106 -45.99,15.313 -10.71,10.215 -16.06,24.89 -16.06,44.043 l 0,88.988 39.73,0 0,-85.887 c 0,-10.343 1.94,-17.847 5.8,-22.515 3.87,-4.676 9.58,-7.016 17.12,-7.016 8.08,0 13.93,2.32 17.57,6.961 3.63,4.637 5.46,12.227 5.46,22.774 l 0,85.683 39.53,0"
         style="fill:#550520;fill-opacity:1;fill-rule:nonzero;stroke:none"
         id="path106"
         inkscape:connector-curvature="0" /><path
         d="m 2380.19,408.777 -39.55,0 0,114.016 -35.73,0 0,32.328 110.91,0 0,-32.328 -35.63,0 0,-114.016"
         style="fill:#550520;fill-opacity:1;fill-rule:nonzero;stroke:none"
         id="path108"
         inkscape:connector-curvature="0" /><path
         d="m 2522.89,408.777 -86.87,0 0,146.344 86.87,0 0,-31.734 -47.34,0 0,-23.02 43.84,0 0,-31.73 -43.84,0 0,-27.629 47.34,0 0,-32.231"
         style="fill:#550520;fill-opacity:1;fill-rule:nonzero;stroke:none"
         id="path110"
         inkscape:connector-curvature="0" /><path
         d="m 2590.61,491.758 7.41,0 c 13.81,0 20.71,6.105 20.71,18.316 0,10.074 -6.77,15.117 -20.31,15.117 l -7.81,0 0,-33.433 z m 0,-29.731 0,-53.25 -39.54,0 0,146.344 47.94,0 c 39.78,0 59.66,-14.414 59.66,-43.242 0,-16.953 -8.27,-30.066 -24.82,-39.344 l 42.64,-63.758 -44.84,0 -31.04,53.25 -10,0"
         style="fill:#550520;fill-opacity:1;fill-rule:nonzero;stroke:none"
         id="path112"
         inkscape:connector-curvature="0" /><path
         d="m 732.051,198.781 -86.883,0 0,146.34 86.883,0 0,-31.73 -47.348,0 0,-23.02 43.852,0 0,-31.73 -43.852,0 0,-27.629 47.348,0 0,-32.231"
         style="fill:#550520;fill-opacity:1;fill-rule:nonzero;stroke:none"
         id="path114"
         inkscape:connector-curvature="0" /><path
         d="m 899.551,198.781 -51.856,0 -53.457,103.098 -0.898,0 c 1.269,-16.219 1.902,-28.598 1.902,-37.141 l 0,-65.957 -35.027,0 0,146.34 51.64,0 53.262,-101.699 0.598,0 c -0.942,14.75 -1.399,26.59 -1.399,35.527 l 0,66.172 35.235,0 0,-146.34"
         style="fill:#550520;fill-opacity:1;fill-rule:nonzero;stroke:none"
         id="path116"
         inkscape:connector-curvature="0" /><path
         d="m 989.746,284.461 63.164,0 0,-78.879 c -17.15,-5.871 -36.01,-8.801 -56.555,-8.801 -22.554,0 -39.988,6.528 -52.3,19.61 -12.317,13.078 -18.469,31.73 -18.469,55.961 0,23.617 6.738,42 20.215,55.148 13.484,13.148 32.375,19.719 56.659,19.719 9.21,0 17.9,-0.86 26.08,-2.598 8.17,-1.742 15.3,-3.941 21.36,-6.601 l -12.51,-31.04 c -10.54,5.211 -22.12,7.809 -34.73,7.809 -11.547,0 -20.472,-3.75 -26.769,-11.258 -6.313,-7.511 -9.465,-18.23 -9.465,-32.179 0,-13.68 2.851,-24.114 8.554,-31.282 5.711,-7.179 13.938,-10.769 24.676,-10.769 5.874,0 11.284,0.57 16.224,1.711 l 0,22.918 -26.134,0 0,30.531"
         style="fill:#550520;fill-opacity:1;fill-rule:nonzero;stroke:none"
         id="path118"
         inkscape:connector-curvature="0" /><path
         d="m 1083.54,198.781 39.7422,0 0,146.34 -39.7422,0 0,-146.34 z"
         style="fill:#550520;fill-opacity:1;fill-rule:nonzero;stroke:none"
         id="path120"
         inkscape:connector-curvature="0" /><path
         d="m 1294.54,198.781 -51.85,0 -53.46,103.098 -0.9,0 c 1.27,-16.219 1.9,-28.598 1.9,-37.141 l 0,-65.957 -35.02,0 0,146.34 51.64,0 53.26,-101.699 0.59,0 c -0.93,14.75 -1.39,26.59 -1.39,35.527 l 0,66.172 35.23,0 0,-146.34"
         style="fill:#550520;fill-opacity:1;fill-rule:nonzero;stroke:none"
         id="path122"
         inkscape:connector-curvature="0" /><path
         d="m 1413.41,198.781 -86.88,0 0,146.34 86.88,0 0,-31.73 -47.35,0 0,-23.02 43.85,0 0,-31.73 -43.85,0 0,-27.629 47.35,0 0,-32.231"
         style="fill:#550520;fill-opacity:1;fill-rule:nonzero;stroke:none"
         id="path124"
         inkscape:connector-curvature="0" /><path
         d="m 1528.47,198.781 -86.88,0 0,146.34 86.88,0 0,-31.73 -47.35,0 0,-23.02 43.85,0 0,-31.73 -43.85,0 0,-27.629 47.35,0 0,-32.231"
         style="fill:#550520;fill-opacity:1;fill-rule:nonzero;stroke:none"
         id="path126"
         inkscape:connector-curvature="0" /><path
         d="m 1596.17,281.762 7.41,0 c 13.81,0 20.72,6.097 20.72,18.32 0,10.066 -6.77,15.109 -20.32,15.109 l -7.81,0 0,-33.429 z m 0,-29.731 0,-53.25 -39.53,0 0,146.34 47.94,0 c 39.78,0 59.66,-14.41 59.66,-43.242 0,-16.957 -8.27,-30.07 -24.83,-39.34 l 42.65,-63.758 -44.84,0 -31.04,53.25 -10.01,0"
         style="fill:#550520;fill-opacity:1;fill-rule:nonzero;stroke:none"
         id="path128"
         inkscape:connector-curvature="0" /><path
         d="m 1698.52,198.781 39.7305,0 0,146.34 -39.7305,0 0,-146.34 z"
         style="fill:#550520;fill-opacity:1;fill-rule:nonzero;stroke:none"
         id="path130"
         inkscape:connector-curvature="0" /><path
         d="m 1909.51,198.781 -51.85,0 -53.46,103.098 -0.9,0 c 1.27,-16.219 1.91,-28.598 1.91,-37.141 l 0,-65.957 -35.03,0 0,146.34 51.64,0 53.26,-101.699 0.59,0 c -0.93,14.75 -1.39,26.59 -1.39,35.527 l 0,66.172 35.23,0 0,-146.34"
         style="fill:#550520;fill-opacity:1;fill-rule:nonzero;stroke:none"
         id="path132"
         inkscape:connector-curvature="0" /><path
         d="m 1999.71,284.461 63.16,0 0,-78.879 c -17.15,-5.871 -36,-8.801 -56.55,-8.801 -22.56,0 -39.99,6.528 -52.31,19.61 -12.31,13.078 -18.46,31.73 -18.46,55.961 0,23.617 6.74,42 20.21,55.148 13.49,13.148 32.37,19.719 56.66,19.719 9.21,0 17.9,-0.86 26.08,-2.598 8.17,-1.742 15.3,-3.941 21.36,-6.601 l -12.51,-31.04 c -10.54,5.211 -22.12,7.809 -34.73,7.809 -11.55,0 -20.47,-3.75 -26.77,-11.258 -6.31,-7.511 -9.46,-18.23 -9.46,-32.179 0,-13.68 2.85,-24.114 8.55,-31.282 5.71,-7.179 13.94,-10.769 24.68,-10.769 5.87,0 11.28,0.57 16.22,1.711 l 0,22.918 -26.13,0 0,30.531"
         style="fill:#550520;fill-opacity:1;fill-rule:nonzero;stroke:none"
         id="path134"
         inkscape:connector-curvature="0" /></g></g></svg>