<?xml version="1.0" encoding="UTF-8" standalone="no"?>
<!-- Created with Inkscape (http://www.inkscape.org/) -->

<svg
   xmlns:dc="http://purl.org/dc/elements/1.1/"
   xmlns:cc="http://creativecommons.org/ns#"
   xmlns:rdf="http://www.w3.org/1999/02/22-rdf-syntax-ns#"
   xmlns:svg="http://www.w3.org/2000/svg"
   xmlns="http://www.w3.org/2000/svg"
   xmlns:sodipodi="http://sodipodi.sourceforge.net/DTD/sodipodi-0.dtd"
   xmlns:inkscape="http://www.inkscape.org/namespaces/inkscape"
   id="svg2"
   version="1.1"
   inkscape:version="0.91 r13725"
   xml:space="preserve"
   width="810.77502"
   height="231.33749"
   viewBox="0 0 810.77502 231.33749"
   sodipodi:docname="fulbright.svg"><metadata
     id="metadata8"><rdf:RDF><cc:Work
         rdf:about=""><dc:format>image/svg+xml</dc:format><dc:type
           rdf:resource="http://purl.org/dc/dcmitype/StillImage" /><dc:title></dc:title></cc:Work></rdf:RDF></metadata><defs
     id="defs6" /><sodipodi:namedview
     pagecolor="#ffffff"
     bordercolor="#666666"
     borderopacity="1"
     objecttolerance="10"
     gridtolerance="10"
     guidetolerance="10"
     inkscape:pageopacity="0"
     inkscape:pageshadow="2"
     inkscape:window-width="640"
     inkscape:window-height="480"
     id="namedview4"
     showgrid="false"
     inkscape:current-layer="g10" /><g
     id="g10"
     inkscape:groupmode="layer"
     inkscape:label="ink_ext_XXXXXX"
     transform="matrix(1.25,0,0,-1.25,0,231.3375)"><g
       id="g12"
       transform="scale(0.1,0.1)"><path
         d="m 3926.79,1839.95 c -16.41,-12.64 -28.33,-30.47 -35.73,-53.49 -7.4,-23.03 -11.1,-54.83 -11.1,-95.45 l 0,-528.07 c 0,-40.63 3.61,-72.22 10.87,-94.79 7.23,-22.57 19.21,-40.39 35.96,-53.47 l -210.76,0 c 16.42,13.08 28.33,31.13 35.73,54.16 7.41,23.01 11.11,54.38 11.11,94.1 l 0,528.07 c 0,40.62 -3.7,72.42 -11.11,95.45 -7.4,23.02 -19.31,40.85 -35.73,53.49 l 210.76,0"
         style="fill:#29438c;fill-opacity:1;fill-rule:nonzero;stroke:none"
         id="path14"
         inkscape:connector-curvature="0" /><path
         d="m 4791.8,1034.05 c 0,0 -66.66,-8.33 -145,-28.33 -73.52,-18.771 -155,-18.329 -228.33,-8.329 -343.93,46.899 -418.46,280.429 -418.46,410.839 0,347.49 301.79,442.49 510.13,442.49 115,0 190,-23.33 190,-23.33 l 1.66,-143.34 c -30,33.34 -98.33,76.67 -213.33,76.67 -200,0 -350,-111.67 -350,-333.33 0,-186.67 146.67,-343.34 336.66,-343.34 78.72,0 155.35,-0.44 193.34,26.67 1.67,0 1.67,218.33 1.67,218.33 0,0 -0.01,65 -58.34,98.34 -1.66,-1.67 182.34,0 182.34,0 l -2.34,-393.34"
         style="fill:#29438c;fill-opacity:1;fill-rule:nonzero;stroke:none"
         id="path16"
         inkscape:connector-curvature="0" /><path
         d="m 5080.81,1498.5 448.36,0 0,187.38 c 0,40.31 -4.27,71.9 -12.79,94.76 -8.53,22.84 -22.66,40.53 -42.38,53.08 l 236.72,0 c -19.73,-13.44 -33.86,-31.47 -42.39,-54.09 -8.53,-22.63 -12.79,-53.88 -12.79,-93.75 l 0,-523.53 c 0,-40.27 4.26,-71.58 12.79,-93.94 8.53,-22.39 22.66,-40.06 42.39,-53.03 l -236.72,0 c 19.33,12.97 33.36,30.86 42.08,53.69 8.72,22.81 13.09,53.91 13.09,93.28 l 0,246.17 -448.36,0 0,-246.17 c 0,-40.27 4.25,-71.58 12.79,-93.94 8.52,-22.39 22.65,-40.06 42.38,-53.03 l -230.06,0 c 19.72,12.97 33.85,30.64 42.39,53.03 8.51,22.36 12.79,53.67 12.79,93.94 l 0,523.53 c 0,40.31 -4.28,71.79 -12.79,94.42 -8.54,22.62 -22.67,40.43 -42.39,53.42 l 230.06,0 c -19.33,-12.55 -33.38,-30.24 -42.1,-53.08 -8.72,-22.86 -13.07,-54.45 -13.07,-94.76 l 0,-187.38"
         style="fill:#29438c;fill-opacity:1;fill-rule:nonzero;stroke:none"
         id="path18"
         inkscape:connector-curvature="0" /><path
         d="m 67.6328,1746.97 c 0,41.24 -28.9453,75.73 -67.6328,84.24 l 581.484,2.01 0,-147.52 c -16.796,32.67 -50.839,55.02 -90.101,55.02 l -297.5,0 0,-603.75 c 0,0 272.5,-2.5 282.5,5 l 2.5,-127.5 c -15.5,22.94 -40.227,36.25 -70,36.25 l -215,0 -1.25,-971.2512 c 0,-35.3282 21.238,-65.6993 51.648,-79.027394 L 14.957,0 c 30.9493,13.0781 52.6758,43.7383 52.6758,79.4688 l 0,1667.5012"
         style="fill:#29438c;fill-opacity:1;fill-rule:nonzero;stroke:none"
         id="path20"
         inkscape:connector-curvature="0" /><path
         d="m 1638.91,1098.75 c 0,-41.25 -28.94,-75.73 -67.63,-84.24 l 580.94,0.37 0.41,160.84 c -16.8,-32.68 -113.24,-70.72 -152.5,-70.72 l -237.5,0 1.28,648.75 c 0,35.33 21.24,65.7 51.65,79.03 l -229.32,0.44 c 30.95,-13.09 52.67,-43.74 52.67,-79.47 l 0,-655"
         style="fill:#29438c;fill-opacity:1;fill-rule:nonzero;stroke:none"
         id="path22"
         inkscape:connector-curvature="0" /><path
         d="m 1294.61,1227.38 c 0,-28.33 -59.48,-146.66 -196.14,-146.66 -153.337,0 -210.001,103.33 -210.001,190 l 2.105,483.03 c 0,35.33 21.242,65.7 51.653,79.03 l -229.329,0.44 c 30.954,-13.09 52.676,-43.74 52.676,-79.47 l 1.227,-504.7 c 0,-139.99 118.332,-254.999 278.329,-254.999 160,0 253.31,103.339 253.31,103.339 l 0,-82.62 187.53,-0.26 c -38.69,8.51 -67.64,42.99 -67.64,84.24 l -1.16,653.27 c 0,35.33 22.97,67.43 53.38,80.76 l -229.32,0.44 c 30.95,-13.09 52.67,-43.74 52.67,-79.47 0,0 0.71,-498.04 0.71,-526.37"
         style="fill:#29438c;fill-opacity:1;fill-rule:nonzero;stroke:none"
         id="path24"
         inkscape:connector-curvature="0" /><path
         d="m 2288.91,1416.97 0,336.78 c 0,35.73 -21.72,66.38 -52.67,79.47 l 263.89,-0.44 c 227.93,0 285,-99.56 285,-172.06 0,-72.5 -17.5,-102.5 -127.5,-170 202.5,-42.5 205,-207.5 205,-207.5 0,-245 -300.41,-268.34 -300.41,-268.34 l -340.94,-0.37 c 38.69,8.51 67.63,42.99 67.63,84.24 l 0,326.97 122.47,-1.25 1.25,-319.47 155,0 c 0,0 155,3.22 155,160.72 0,157.5 -197.5,160 -207.5,160 -10,0 -107.5,-1.25 -107.5,-1.25 l 0,78.75 c 0,0 242.5,-22.5 242.5,140 0,162.5 -236.22,110.53 -236.22,110.53 l -1.28,-335.53 -123.72,-1.25"
         style="fill:#29438c;fill-opacity:1;fill-rule:nonzero;stroke:none"
         id="path26"
         inkscape:connector-curvature="0" /><path
         d="m 2908.77,1014.5 c 38.69,8.52 67.64,42.99 67.64,84.24 l 0,655 c 0,35.73 -21.73,66.39 -52.68,79.47 l 263.9,-0.44 c 227.93,0 285,-123.72 285,-196.22 0,-80 -35.83,-165 -192.5,-226.67 98.34,-145 258.34,-343.33 376.67,-395 l -95,0 c -158.33,0 -216.67,101.66 -428.33,421.67 0,0 215,20.83 215,183.33 0,162.5 -247.07,133.86 -247.07,133.86 l 0.29,-654.49 c 0,0 -3.75,-61.35 51.25,-84.68 l -244.17,-0.07"
         style="fill:#29438c;fill-opacity:1;fill-rule:nonzero;stroke:none"
         id="path28"
         inkscape:connector-curvature="0" /><path
         d="m 6102.36,1740.72 c 0,0 -92.23,0 -144.73,0 -52.5,0 -112.5,-45 -112.5,-45 l 42.5,135.49 598.58,2.01 -35,-147.52 c -16.8,32.67 -50.84,55.02 -90.1,55.02 l -132.5,0 -1.25,-1661.2512 c 0,-35.3282 21.24,-65.6993 51.65,-79.027394 L 6049.68,0 c 30.96,13.0781 52.68,43.7383 52.68,79.4688 l 0,1661.2512"
         style="fill:#29438c;fill-opacity:1;fill-rule:nonzero;stroke:none"
         id="path30"
         inkscape:connector-curvature="0" /><path
         d="m 2094.29,444.23 -732.75,0 c 23.65,-176.589 449.13,-319.058 1037.68,-384.6792 74.87,-7.1797 149.33,-14 215.25,-18.7422 32.24,-1.4375 64.79,-2.7578 97.69,-3.9297 4.65,0.3906 9.28,0.7617 13.86,1.082 C 2434.64,128.512 2111.35,280.871 2094.29,444.23 Z M 3022.97,33.0586 c 31.63,-0.9883 67.77,-3.1367 97.98,-3.2773 l 0,414.4487 -464.65,0 C 2669.73,253.699 2973.57,62.8711 3022.97,33.0586 Z m -407.36,411.1714 -478.38,0 c 29.44,-201.832 606.52,-375.8589 776.92,-410.3316 12.92,-1.1992 24.08,-2.2968 33.3,-3.0586 2.68,-0.0507 5.36,-0.1015 8.04,-0.1406 0.07,0.3321 0.15,0.5703 0.22,0.8906 -158.21,87.0582 -330.2,255.8512 -340.1,412.6402 z m -1821.786,0 -220.793,0 C 607.984,280.891 1104.71,139.121 1832.48,60.832 c -3.14,0.9883 -6.13,1.9375 -8.96,2.8594 C 1222.98,145.98 818.824,283.891 793.824,444.23 Z m 4130.916,0 -734.6,0 C 4173.02,279.809 3846.45,128.191 3553.27,38.0391 c 57.23,1.75 115.55,4.0703 175.81,7.2812 644.44,55.5587 1169.56,200.3207 1195.66,398.9097 z m 531.31,0 -492.57,0 C 4947.17,292.941 4686.94,172.879 4330.92,90.8984 5003.36,167.051 5427.45,303.91 5456.05,444.23 Z m 43.57,0 C 5481.71,296.512 5116.55,165.18 4565.83,80.7617 4559.77,78.6719 4549.25,75.4102 4534.77,71.1719 5212.2,151.25 5668.8,287.859 5702.26,444.23 l -202.64,0 z m -1869.05,0 -469.6,0 0,-413.7886 c 34.78,0.6289 69.28,1.207 103.47,1.7383 44.79,26.6094 349.45,214.4293 366.13,412.0503 z m 517.37,0 -476.03,0 c -8.99,-148.789 -171.88,-321.281 -336.29,-410.9292 16.33,0.25 32.66,0.539 48.98,0.8203 166.17,35.1992 727.79,210.8279 763.34,410.1089 z M 1869.57,865.805 c -3.77,0.086 -5.86,0.16 -5.86,0.265 0,0.325 6.78,1.66 19.49,3.817 C 1132.52,793.27 615.258,650.051 573.766,484.262 l 221.453,0 C 834.398,668.43 1318.28,792.031 1869.57,865.805 Z m -554.42,-421.575 -479.119,0 C 865.309,310.309 1280.14,171.891 1944.1,93.6094 1592.71,175.09 1331.6,293.762 1315.15,444.23 Z M 3229.8,895.641 c -0.2,0 -0.35,0.015 -0.54,0.015 -17.3,0 -31.51,0.032 -43.43,0.071 l -24.86,0 0,-411.465 469.03,0 c -25.1,219.789 -394.65,408.558 -400.2,411.379 z m 440.75,-411.379 477.13,0 c -37.11,190.918 -584.66,358.367 -825.65,402.226 -0.3,0.004 -0.69,0.004 -0.98,0.012 170.22,-82.059 331.11,-255.629 349.5,-402.238 z m 1291.26,0 491.62,0 c -45.78,138.629 -470.3,289.117 -1234.97,363.918 -1.03,-0.032 -2.06,-0.071 -3.09,-0.098 400.45,-78.844 716.77,-202.102 746.44,-363.82 z m 535.4,0 204.33,0 C 5661.09,645.859 5168.59,786 4448.56,863.938 c -0.86,-0.086 -1.73,-0.18 -2.6,-0.27 C 4975.82,793.18 5453.45,674.23 5497.21,484.262 Z m -1308.83,0 734.36,0 c -47.22,191.879 -643.3,359.687 -1396.47,403.664 -6.14,0.203 -12.28,0.351 -18.42,0.504 299.08,-77.711 648.78,-223.2 680.53,-404.168 z M 3053.56,895.637 c 1.83,0.011 3.66,0.015 5.48,0.023 -5.29,-2.66 -373.1,-188.48 -401.57,-411.398 l 463.48,0 0,411.465 -47.18,0 c 15.7,0.086 31.42,0.156 47.18,0.207 l 0,0.211 c -14.49,0.043 -43.64,0.472 -58.25,0.472 -3.11,-0.262 -6.11,-0.629 -9.14,-0.98 z m -1690.28,-411.375 732.65,0 c 33.81,183.847 411.73,329.66 709.41,406.426 C 2071.16,853.48 1410.66,697.09 1363.28,484.262 Z m 699.47,361.25 c -0.53,-0.102 -1.08,-0.203 -1.6,-0.301 0.45,0.051 0.91,0.09 1.36,0.129 0.09,0.058 0.14,0.121 0.24,0.172 z m -1224.219,-361.25 478.339,0 c 30.01,158.828 344.62,281.57 744.28,360.949 C 1339.53,771.41 886.039,627.629 838.531,484.262 Z m 1300.119,0 478.11,0 c 17.42,148.847 179.35,316.726 341.58,398.906 -0.2,0.004 -0.4,0 -0.6,0.004 -244.13,-47.141 -777.47,-204.492 -819.09,-398.91"
         style="fill:#29438c;fill-opacity:1;fill-rule:nonzero;stroke:none"
         id="path32"
         inkscape:connector-curvature="0" /></g></g></svg>