<?xml version="1.0" encoding="UTF-8" standalone="no"?>
<!-- Created with Inkscape (http://www.inkscape.org/) -->

<svg
   xmlns:dc="http://purl.org/dc/elements/1.1/"
   xmlns:cc="http://creativecommons.org/ns#"
   xmlns:rdf="http://www.w3.org/1999/02/22-rdf-syntax-ns#"
   xmlns:svg="http://www.w3.org/2000/svg"
   xmlns="http://www.w3.org/2000/svg"
   xmlns:sodipodi="http://sodipodi.sourceforge.net/DTD/sodipodi-0.dtd"
   xmlns:inkscape="http://www.inkscape.org/namespaces/inkscape"
   id="svg2"
   version="1.1"
   inkscape:version="0.91 r13725"
   xml:space="preserve"
   width="122.77565"
   height="25.112499"
   viewBox="0 0 122.77565 25.1125"
   sodipodi:docname="TAM-Wordmark.svg"><metadata
     id="metadata8"><rdf:RDF><cc:Work
         rdf:about=""><dc:format>image/svg+xml</dc:format><dc:type
           rdf:resource="http://purl.org/dc/dcmitype/StillImage" /><dc:title></dc:title></cc:Work></rdf:RDF></metadata><defs
     id="defs6"><clipPath
       clipPathUnits="userSpaceOnUse"
       id="clipPath4198"><rect
         style="fill:none;fill-opacity:1;stroke:#9a9e1a;stroke-width:0.80000001;stroke-miterlimit:4;stroke-dasharray:none;stroke-dashoffset:0;stroke-opacity:1"
         id="rect4200"
         width="100.40814"
         height="23.052891"
         x="-1.7076216"
         y="-22.028318"
         transform="scale(1,-1)" /></clipPath></defs><sodipodi:namedview
     pagecolor="#ffffff"
     bordercolor="#666666"
     borderopacity="1"
     objecttolerance="10"
     gridtolerance="10"
     guidetolerance="10"
     inkscape:pageopacity="0"
     inkscape:pageshadow="2"
     inkscape:window-width="640"
     inkscape:window-height="480"
     id="namedview4"
     showgrid="false"
     fit-margin-top="0"
     fit-margin-left="0"
     fit-margin-right="-0.6"
     fit-margin-bottom="0"
     inkscape:current-layer="g10" /><g
     id="g10"
     inkscape:groupmode="layer"
     inkscape:label="TAM-Wordmark"
     transform="matrix(1.25,0,0,-1.25,0,25.1125)"><g
       id="g12"
       clip-path="url(#clipPath4198)"><path
         d="m 11.293,16.629 -0.801,0 c -0.074,0.707 -0.23,1.23 -0.465,1.566 -0.242,0.336 -0.5,0.551 -0.773,0.625 -0.277,0.078 -0.594,0.117 -0.953,0.117 l -1.449,0 0,-8.371 c 0,-0.332 0.035,-0.59 0.101,-0.773 C 7.02,9.609 7.176,9.469 7.426,9.367 7.672,9.265 8.035,9.215 8.512,9.215 l 0,-0.774 -5.731,0 0,0.774 c 0.703,0 1.157,0.101 1.36,0.304 0.199,0.203 0.3,0.551 0.3,1.047 l 0,8.371 -1.211,0 C 2.75,18.937 2.355,18.902 2.039,18.824 1.727,18.75 1.449,18.543 1.211,18.203 0.969,17.859 0.832,17.336 0.801,16.629 l -0.801,0 0,3.246 11.293,0 0,-3.246 z"
         style="fill:#500000;fill-opacity:1;fill-rule:nonzero;stroke:none"
         id="path14"
         inkscape:connector-curvature="0" /><path
         d="m 22.445,12.199 -0.093,-3.758 -10.184,0 0,0.778 c 0.703,0 1.156,0.097 1.359,0.3 0.203,0.203 0.305,0.551 0.305,1.047 l 0,7.184 c 0,0.328 -0.035,0.586 -0.098,0.765 -0.066,0.184 -0.214,0.325 -0.453,0.43 -0.242,0.102 -0.609,0.156 -1.113,0.156 l 0,0.774 9.484,0 0.153,-2.969 -0.778,0 c -0.172,0.66 -0.375,1.129 -0.601,1.414 -0.227,0.285 -0.485,0.461 -0.766,0.524 -0.285,0.066 -0.711,0.097 -1.277,0.097 l -2.141,0 0,-4.043 1.16,0 c 0.399,0 0.7,0.035 0.895,0.106 0.195,0.07 0.336,0.203 0.414,0.398 0.078,0.199 0.133,0.508 0.16,0.926 l 0.809,0 0,-3.797 -0.778,0 c -0.023,0.422 -0.078,0.73 -0.168,0.93 -0.089,0.199 -0.23,0.332 -0.425,0.402 -0.192,0.066 -0.489,0.102 -0.887,0.102 l -1.18,0 0,-2.688 c 0,-0.453 0.012,-0.781 0.031,-0.988 0.024,-0.207 0.086,-0.383 0.184,-0.52 0.098,-0.133 0.258,-0.238 0.481,-0.297 0.222,-0.062 0.535,-0.089 0.945,-0.089 l 0.918,0 c 0.39,0 0.758,0.046 1.109,0.144 0.352,0.098 0.695,0.352 1.031,0.758 0.34,0.41 0.579,1.047 0.711,1.918 l 0.793,0 0,-0.004 z"
         style="fill:#500000;fill-opacity:1;fill-rule:nonzero;stroke:none"
         id="path16"
         inkscape:connector-curvature="0" /><path
         d="m 36.59,8.441 -6.672,0 0,0.778 0.531,0 c 0.293,0 0.555,0.039 0.789,0.113 0.231,0.078 0.348,0.246 0.348,0.512 0,0.128 -0.148,0.39 -0.445,0.789 l -1.848,2.441 -1.777,-2.078 c -0.418,-0.469 -0.625,-0.832 -0.625,-1.086 0,-0.211 0.07,-0.363 0.207,-0.465 0.136,-0.105 0.304,-0.168 0.5,-0.191 0.199,-0.024 0.461,-0.035 0.793,-0.035 l 0,-0.774 -5.024,0 0,0.774 c 0.367,0.011 0.692,0.066 0.973,0.16 0.285,0.097 0.605,0.297 0.957,0.605 0.355,0.305 0.816,0.793 1.391,1.461 l 2.031,2.383 -2.754,3.629 c -0.418,0.539 -0.719,0.906 -0.902,1.101 -0.184,0.192 -0.403,0.328 -0.649,0.414 -0.246,0.086 -0.598,0.125 -1.047,0.125 l 0,0.778 6.238,0 0,-0.778 -0.441,0 c -0.32,0 -0.559,-0.019 -0.719,-0.07 -0.16,-0.047 -0.238,-0.176 -0.238,-0.383 0,-0.121 0.168,-0.425 0.512,-0.91 l 1.594,-2.058 1.812,2.125 c 0.16,0.214 0.27,0.363 0.32,0.449 0.047,0.09 0.075,0.195 0.075,0.324 0,0.184 -0.071,0.32 -0.211,0.402 -0.141,0.082 -0.407,0.121 -0.793,0.121 l -0.391,0 0,0.774 4.723,0 0,-0.774 c -0.43,0 -0.801,-0.066 -1.11,-0.207 -0.304,-0.136 -0.574,-0.32 -0.808,-0.543 -0.231,-0.226 -0.571,-0.593 -1.016,-1.105 l -2.039,-2.344 2.781,-3.644 c 0.418,-0.551 0.754,-0.965 1.024,-1.25 0.265,-0.278 0.539,-0.477 0.812,-0.594 0.278,-0.121 0.641,-0.184 1.094,-0.195 l 0,-0.774 0.004,0 z"
         style="fill:#500000;fill-opacity:1;fill-rule:nonzero;stroke:none"
         id="path18"
         inkscape:connector-curvature="0" /><path
         d="m 47.211,8.441 -5.383,0 0,0.778 c 0.453,0 0.789,0.035 0.996,0.093 0.207,0.067 0.309,0.219 0.309,0.461 0,0.172 -0.031,0.34 -0.098,0.516 l -0.539,1.347 -3.711,0 -0.277,-0.742 c -0.156,-0.414 -0.235,-0.715 -0.235,-0.898 0,-0.34 0.129,-0.551 0.387,-0.641 0.262,-0.094 0.57,-0.136 0.918,-0.136 l 0,-0.778 -3.937,0 0,0.778 c 0.316,0 0.582,0.058 0.804,0.175 0.215,0.117 0.426,0.344 0.625,0.672 0.2,0.328 0.414,0.793 0.645,1.395 l 3.293,8.629 0.801,0 3.484,-8.899 c 0.25,-0.629 0.437,-1.055 0.551,-1.277 0.121,-0.223 0.285,-0.395 0.492,-0.516 0.207,-0.121 0.5,-0.179 0.875,-0.179 l 0,-0.778 z m -5.02,4.028 -1.574,3.976 -1.5,-3.976 3.074,0 z"
         style="fill:#500000;fill-opacity:1;fill-rule:nonzero;stroke:none"
         id="path20"
         inkscape:connector-curvature="0" /><path
         d="m 55.844,11.847 c 0,-0.343 -0.071,-0.714 -0.219,-1.097 C 55.477,10.359 55.25,9.988 54.949,9.633 54.652,9.281 54.273,8.992 53.816,8.769 53.359,8.547 52.832,8.433 52.234,8.433 c -0.593,0 -1.183,0.129 -1.769,0.387 -0.586,0.258 -1.082,0.649 -1.488,1.156 -0.18,-0.41 -0.289,-0.785 -0.34,-1.129 l -0.758,0 0,3.825 0.758,0 c 0.136,-0.551 0.324,-1.071 0.57,-1.551 0.238,-0.485 0.582,-0.902 1.023,-1.25 0.442,-0.352 0.989,-0.524 1.629,-0.524 0.563,0 1.012,0.153 1.352,0.461 0.336,0.309 0.508,0.696 0.508,1.161 0,0.265 -0.055,0.496 -0.156,0.695 -0.106,0.195 -0.258,0.375 -0.454,0.531 -0.199,0.156 -0.468,0.324 -0.812,0.5 -0.344,0.184 -0.734,0.371 -1.176,0.566 -0.676,0.321 -1.234,0.645 -1.664,0.965 -0.437,0.325 -0.766,0.641 -0.988,0.946 -0.223,0.308 -0.379,0.593 -0.461,0.871 -0.086,0.277 -0.129,0.551 -0.129,0.836 0,0.5 0.137,0.992 0.406,1.48 0.27,0.488 0.664,0.887 1.18,1.199 0.523,0.309 1.121,0.465 1.805,0.465 0.523,0 1.019,-0.117 1.492,-0.351 0.476,-0.235 0.883,-0.559 1.23,-0.969 0.098,0.234 0.192,0.558 0.274,0.98 l 0.773,0 0,-3.121 -0.773,0 c -0.551,1.699 -1.508,2.547 -2.871,2.547 -0.493,0 -0.891,-0.129 -1.192,-0.39 -0.297,-0.258 -0.449,-0.594 -0.449,-1.004 0,-0.325 0.094,-0.602 0.281,-0.844 0.188,-0.238 0.434,-0.442 0.738,-0.613 0.305,-0.168 0.801,-0.414 1.481,-0.731 0.824,-0.391 1.469,-0.73 1.937,-1.016 0.465,-0.285 0.856,-0.648 1.18,-1.085 0.313,-0.434 0.473,-0.961 0.473,-1.579 z"
         style="fill:#500000;fill-opacity:1;fill-rule:nonzero;stroke:none"
         id="path22"
         inkscape:connector-curvature="0" /><path
         d="m 73.297,8.441 -5.387,0 0,0.778 c 0.453,0 0.785,0.035 0.996,0.093 0.207,0.067 0.313,0.219 0.313,0.461 0,0.172 -0.035,0.34 -0.102,0.516 l -0.543,1.347 -3.703,0 -0.281,-0.742 c -0.156,-0.414 -0.235,-0.715 -0.235,-0.898 0,-0.34 0.129,-0.551 0.391,-0.641 0.258,-0.094 0.563,-0.136 0.91,-0.136 l 0,-0.778 -3.933,0 0,0.778 c 0.316,0 0.582,0.058 0.8,0.175 0.219,0.117 0.43,0.344 0.633,0.672 0.196,0.328 0.41,0.793 0.641,1.395 l 3.297,8.629 0.801,0 3.48,-8.899 c 0.254,-0.629 0.438,-1.055 0.555,-1.277 0.117,-0.223 0.281,-0.395 0.488,-0.516 0.207,-0.121 0.5,-0.179 0.879,-0.179 l 0,-0.778 z m -5.024,4.028 -1.578,3.976 -1.496,-3.976 3.074,0 z"
         style="fill:#500000;fill-opacity:1;fill-rule:nonzero;stroke:none"
         id="path24"
         inkscape:connector-curvature="0" /><path
         d="m 98.211,8.441 -5.731,0 0,0.778 c 0.497,0 0.86,0.046 1.09,0.148 0.227,0.098 0.379,0.242 0.45,0.43 0.07,0.187 0.105,0.445 0.105,0.769 l 0,7.168 -4.312,-9.289 -0.516,0 -4.371,9.289 0,-6.805 c 0,-0.359 0.012,-0.632 0.039,-0.824 0.023,-0.191 0.086,-0.355 0.187,-0.488 0.106,-0.137 0.274,-0.234 0.496,-0.301 0.223,-0.062 0.54,-0.097 0.934,-0.097 l 0,-0.774 -4.223,0 0,0.774 c 0.403,0 0.715,0.035 0.938,0.101 0.219,0.066 0.383,0.168 0.484,0.305 0.102,0.133 0.16,0.297 0.184,0.484 0.023,0.188 0.035,0.461 0.035,0.82 l 0,6.477 c 0,0.48 -0.027,0.832 -0.078,1.043 -0.051,0.215 -0.188,0.379 -0.418,0.484 -0.227,0.114 -0.609,0.164 -1.149,0.164 l 0,0.778 4.172,0 3.793,-8.067 3.801,8.067 4.086,0 0,-0.778 c -0.703,0 -1.156,-0.101 -1.363,-0.304 -0.203,-0.207 -0.305,-0.551 -0.305,-1.043 l 0,-7.184 c 0,-0.308 0.035,-0.558 0.102,-0.75 0.066,-0.191 0.222,-0.34 0.468,-0.445 0.243,-0.102 0.61,-0.152 1.098,-0.152 l 0,-0.778 0.004,0 z"
         style="fill:#500000;fill-opacity:1;fill-rule:nonzero;stroke:none"
         id="path26"
         inkscape:connector-curvature="0" /><path
         d="M 6.668,4.484 C 6.453,4.484 6.305,4.457 6.215,4.41 6.121,4.359 6.066,4.293 6.047,4.199 6.027,4.109 6.016,3.972 6.016,3.785 l 0,-1.742 C 6.016,1.722 6,1.484 5.98,1.324 5.961,1.164 5.902,1 5.805,0.836 5.629,0.519 5.387,0.301 5.066,0.183 4.75,0.062 4.449,0 4.156,0 3.938,0 3.719,0.031 3.488,0.09 3.262,0.144 3.047,0.238 2.852,0.367 2.656,0.5 2.504,0.668 2.402,0.879 2.348,0.992 2.305,1.113 2.277,1.226 2.246,1.344 2.227,1.457 2.223,1.558 2.215,1.66 2.215,1.797 2.215,1.965 L 2.207,3.926 C 2.207,4.129 2.164,4.277 2.086,4.359 2.008,4.441 1.82,4.484 1.527,4.484 l 0,0.317 2.375,0 0,-0.317 C 3.699,4.484 3.551,4.465 3.449,4.422 3.352,4.383 3.289,4.324 3.258,4.246 3.227,4.172 3.211,4.062 3.211,3.926 l 0,-1.961 C 3.211,1.761 3.219,1.586 3.238,1.433 3.258,1.281 3.289,1.148 3.332,1.035 3.41,0.847 3.547,0.695 3.734,0.586 3.922,0.476 4.133,0.418 4.355,0.418 c 0.247,0 0.473,0.058 0.68,0.176 0.211,0.121 0.356,0.277 0.438,0.464 0.066,0.153 0.109,0.301 0.129,0.465 0.015,0.156 0.027,0.348 0.027,0.567 l 0,1.699 C 5.629,3.937 5.625,4.054 5.617,4.125 5.605,4.199 5.578,4.265 5.539,4.324 5.496,4.379 5.43,4.422 5.332,4.449 5.234,4.472 5.102,4.484 4.934,4.484 l 0,0.32 1.734,0 0,-0.32 z"
         style="fill:#500000;fill-opacity:1;fill-rule:nonzero;stroke:none"
         id="path28"
         inkscape:connector-curvature="0" /><path
         d="m 17.777,4.484 c -0.222,0 -0.386,-0.023 -0.48,-0.07 C 17.199,4.367 17.137,4.301 17.113,4.215 17.094,4.129 17.078,3.984 17.078,3.785 l 0,-3.738 -0.316,0 -3.086,3.664 0,-2.594 c 0,-0.199 0.012,-0.34 0.035,-0.43 0.023,-0.09 0.086,-0.16 0.184,-0.207 0.101,-0.047 0.261,-0.07 0.484,-0.07 l 0,-0.32 -1.75,0 0,0.32 c 0.207,0 0.359,0.023 0.453,0.07 0.094,0.047 0.152,0.117 0.176,0.207 0.019,0.09 0.031,0.231 0.031,0.43 l 0,2.402 c 0,0.196 -0.008,0.344 -0.016,0.438 -0.011,0.097 -0.035,0.183 -0.074,0.258 -0.039,0.07 -0.105,0.132 -0.195,0.175 -0.09,0.047 -0.211,0.079 -0.371,0.094 l 0,0.317 1.375,0 2.687,-3.168 0,2.152 c 0,0.176 -0.015,0.309 -0.035,0.402 -0.027,0.094 -0.086,0.168 -0.183,0.219 -0.098,0.051 -0.247,0.078 -0.457,0.078 l 0,0.317 1.757,0 0,-0.317 z"
         style="fill:#500000;fill-opacity:1;fill-rule:nonzero;stroke:none"
         id="path30"
         inkscape:connector-curvature="0" /><path
         d="m 26.113,0.09 -2.39,0 0,0.32 c 0.199,0 0.347,0.019 0.449,0.059 0.101,0.039 0.168,0.093 0.199,0.171 0.031,0.079 0.047,0.184 0.047,0.329 l 0,2.957 c 0,0.203 -0.039,0.347 -0.125,0.429 -0.086,0.086 -0.273,0.129 -0.57,0.129 l 0,0.317 2.39,0 0,-0.317 C 25.914,4.484 25.762,4.461 25.66,4.422 25.559,4.386 25.496,4.328 25.461,4.254 25.43,4.176 25.414,4.066 25.414,3.926 l 0,-2.957 c 0,-0.141 0.016,-0.243 0.047,-0.321 C 25.488,0.574 25.555,0.515 25.652,0.472 25.75,0.429 25.906,0.41 26.113,0.41 l 0,-0.32 z"
         style="fill:#500000;fill-opacity:1;fill-rule:nonzero;stroke:none"
         id="path32"
         inkscape:connector-curvature="0" /><path
         d="M 37.262,4.484 C 37.152,4.48 37.055,4.465 36.973,4.437 36.891,4.41 36.824,4.367 36.77,4.308 36.715,4.246 36.66,4.168 36.609,4.066 36.555,3.965 36.484,3.804 36.387,3.586 L 34.852,0 34.527,0 32.918,3.761 C 32.82,3.996 32.742,4.156 32.691,4.246 32.633,4.332 32.559,4.394 32.465,4.429 32.375,4.465 32.234,4.48 32.051,4.48 l 0,0.321 2.398,0 0,-0.321 C 34.223,4.469 34.066,4.453 33.977,4.426 33.891,4.398 33.844,4.328 33.844,4.215 33.844,4.113 33.875,4 33.93,3.883 l 1.082,-2.52 1.004,2.352 c 0.082,0.203 0.125,0.343 0.125,0.421 0,0.153 -0.051,0.247 -0.157,0.282 -0.105,0.039 -0.257,0.058 -0.472,0.062 l 0,0.321 1.75,0 0,-0.317 z"
         style="fill:#500000;fill-opacity:1;fill-rule:nonzero;stroke:none"
         id="path34"
         inkscape:connector-curvature="0" /><path
         d="m 47.461,1.64 -0.039,-1.55 -4.203,0 0,0.316 c 0.293,0 0.48,0.047 0.562,0.125 0.082,0.086 0.125,0.23 0.125,0.434 l 0,2.961 c 0,0.132 -0.015,0.242 -0.039,0.316 -0.027,0.074 -0.09,0.133 -0.191,0.18 -0.098,0.039 -0.246,0.062 -0.457,0.062 l 0,0.317 3.918,0 0.058,-1.223 -0.32,0 c -0.07,0.273 -0.148,0.469 -0.246,0.586 -0.094,0.117 -0.203,0.187 -0.316,0.215 -0.118,0.027 -0.293,0.043 -0.528,0.043 l -0.883,0 0,-1.668 0.481,0 c 0.164,0 0.289,0.015 0.367,0.043 0.082,0.027 0.141,0.086 0.172,0.164 0.031,0.082 0.055,0.207 0.066,0.383 l 0.332,0 0,-1.567 -0.32,0 c -0.008,0.176 -0.031,0.301 -0.07,0.387 -0.035,0.082 -0.094,0.137 -0.172,0.16 -0.082,0.031 -0.203,0.047 -0.367,0.047 l -0.485,0 0,-1.11 c 0,-0.187 0.004,-0.324 0.012,-0.41 0.012,-0.086 0.035,-0.156 0.078,-0.215 0.039,-0.054 0.106,-0.093 0.195,-0.125 0.094,-0.023 0.223,-0.035 0.391,-0.035 l 0.379,0 c 0.16,0 0.312,0.02 0.457,0.063 0.145,0.039 0.285,0.144 0.426,0.312 0.14,0.168 0.234,0.43 0.297,0.789 l 0.32,0 z"
         style="fill:#500000;fill-opacity:1;fill-rule:nonzero;stroke:none"
         id="path36"
         inkscape:connector-curvature="0" /><path
         d="m 58.684,0.09 -1.258,0 c -0.051,0.054 -0.11,0.125 -0.172,0.222 -0.07,0.098 -0.145,0.211 -0.227,0.344 -0.082,0.129 -0.148,0.238 -0.199,0.324 l -0.32,0.528 C 56.363,1.746 56.258,1.906 56.18,1.992 56.109,2.078 56.027,2.136 55.934,2.16 55.84,2.187 55.676,2.195 55.453,2.195 l -0.18,0 0,-1.226 c 0,-0.133 0.016,-0.235 0.047,-0.317 0.024,-0.078 0.09,-0.141 0.192,-0.18 0.105,-0.046 0.254,-0.066 0.453,-0.066 l 0,-0.316 -2.363,0 0,0.316 c 0.285,0 0.472,0.047 0.554,0.129 0.082,0.082 0.121,0.223 0.121,0.43 l 0,2.972 c 0,0.203 -0.039,0.344 -0.117,0.43 -0.082,0.082 -0.265,0.125 -0.558,0.125 l 0,0.328 1.089,0.035 c 0.086,0.008 0.18,0.008 0.286,0.012 0.109,0.004 0.211,0.004 0.3,0.004 0.075,0 0.192,0 0.356,-0.004 C 55.871,4.859 56.09,4.844 56.293,4.824 56.5,4.801 56.656,4.773 56.777,4.738 56.953,4.695 57.113,4.621 57.273,4.519 57.426,4.422 57.555,4.285 57.656,4.117 57.754,3.953 57.801,3.758 57.801,3.539 57.801,3.383 57.77,3.226 57.699,3.082 57.633,2.929 57.52,2.797 57.371,2.683 57.219,2.57 57.02,2.476 56.773,2.41 56.941,2.312 57.082,2.187 57.203,2.039 57.32,1.89 57.504,1.621 57.758,1.226 57.902,1 58.023,0.832 58.117,0.719 58.211,0.601 58.301,0.523 58.379,0.48 58.461,0.441 58.563,0.418 58.684,0.402 l 0,-0.312 z m -1.95,3.461 c 0,0.371 -0.117,0.621 -0.347,0.746 -0.227,0.121 -0.524,0.183 -0.895,0.183 -0.051,0 -0.09,-0.004 -0.117,-0.004 l -0.102,0 0,-1.894 0.219,0 c 0.352,0 0.645,0.058 0.883,0.172 0.242,0.109 0.359,0.379 0.359,0.797 z"
         style="fill:#500000;fill-opacity:1;fill-rule:nonzero;stroke:none"
         id="path38"
         inkscape:connector-curvature="0" /><path
         d="M 68.156,1.445 C 68.156,1.297 68.121,1.144 68.059,0.98 67.996,0.816 67.902,0.66 67.777,0.508 67.652,0.359 67.492,0.238 67.297,0.144 c -0.188,-0.09 -0.414,-0.14 -0.664,-0.14 -0.25,0 -0.5,0.054 -0.746,0.16 C 65.637,0.277 65.43,0.437 65.258,0.652 65.184,0.48 65.141,0.32 65.117,0.176 l -0.32,0 0,1.613 0.32,0 c 0.055,-0.231 0.137,-0.449 0.238,-0.653 0.102,-0.207 0.247,-0.378 0.438,-0.527 0.184,-0.144 0.41,-0.219 0.68,-0.219 0.238,0 0.425,0.067 0.566,0.196 0.149,0.129 0.219,0.293 0.219,0.488 0,0.113 -0.02,0.207 -0.067,0.293 C 67.145,1.449 67.086,1.523 67,1.59 c -0.082,0.066 -0.199,0.136 -0.34,0.214 -0.148,0.075 -0.312,0.153 -0.496,0.235 -0.285,0.137 -0.519,0.273 -0.699,0.406 -0.184,0.137 -0.324,0.27 -0.418,0.399 -0.094,0.128 -0.156,0.25 -0.195,0.367 -0.036,0.117 -0.051,0.234 -0.051,0.351 0,0.211 0.054,0.418 0.168,0.621 0.117,0.207 0.281,0.375 0.5,0.504 0.219,0.133 0.472,0.196 0.758,0.196 0.218,0 0.429,-0.047 0.628,-0.145 0.2,-0.102 0.372,-0.234 0.516,-0.406 0.047,0.101 0.082,0.234 0.113,0.41 l 0.325,0 0,-1.316 -0.325,0 c -0.226,0.718 -0.629,1.078 -1.207,1.078 -0.207,0 -0.375,-0.055 -0.5,-0.164 -0.129,-0.114 -0.191,-0.254 -0.191,-0.426 0,-0.137 0.039,-0.254 0.121,-0.356 0.078,-0.101 0.18,-0.187 0.309,-0.261 0.129,-0.071 0.339,-0.176 0.625,-0.309 0.347,-0.164 0.617,-0.309 0.812,-0.426 0.195,-0.121 0.363,-0.273 0.5,-0.453 0.133,-0.183 0.203,-0.406 0.203,-0.664 z"
         style="fill:#500000;fill-opacity:1;fill-rule:nonzero;stroke:none"
         id="path40"
         inkscape:connector-curvature="0" /><path
         d="m 76.688,0.09 -2.395,0 0,0.32 c 0.203,0 0.355,0.019 0.457,0.059 0.102,0.039 0.168,0.093 0.199,0.171 0.031,0.079 0.047,0.184 0.047,0.329 l 0,2.957 c 0,0.203 -0.043,0.347 -0.129,0.429 -0.086,0.086 -0.273,0.129 -0.574,0.129 l 0,0.317 2.395,0 0,-0.317 C 76.492,4.484 76.34,4.461 76.238,4.422 76.137,4.386 76.07,4.328 76.035,4.254 76.008,4.176 75.992,4.066 75.992,3.926 l 0,-2.957 c 0,-0.141 0.016,-0.243 0.043,-0.321 C 76.066,0.574 76.133,0.515 76.227,0.472 76.328,0.429 76.48,0.41 76.688,0.41 l 0,-0.32 z"
         style="fill:#500000;fill-opacity:1;fill-rule:nonzero;stroke:none"
         id="path42"
         inkscape:connector-curvature="0" /><path
         d="m 87.371,3.465 -0.328,0 C 87.012,3.758 86.949,3.976 86.852,4.113 86.75,4.254 86.645,4.34 86.531,4.367 86.422,4.402 86.285,4.418 86.141,4.418 l -0.598,0 0,-3.449 c 0,-0.141 0.016,-0.247 0.043,-0.321 0.023,-0.07 0.09,-0.133 0.191,-0.172 0.106,-0.047 0.25,-0.066 0.45,-0.066 l 0,-0.316 -2.36,0 0,0.316 c 0.285,0 0.473,0.043 0.555,0.125 0.086,0.086 0.125,0.226 0.125,0.434 l 0,3.449 -0.5,0 C 83.852,4.418 83.688,4.402 83.559,4.371 83.43,4.34 83.313,4.254 83.215,4.113 83.113,3.972 83.059,3.758 83.047,3.465 l -0.332,0 0,1.336 4.66,0 -0.004,-1.336 z"
         style="fill:#500000;fill-opacity:1;fill-rule:nonzero;stroke:none"
         id="path44"
         inkscape:connector-curvature="0" /><path
         d="M 98.215,4.484 C 98.086,4.472 97.98,4.445 97.895,4.398 97.813,4.347 97.73,4.269 97.645,4.156 97.559,4.047 97.434,3.863 97.27,3.613 l -0.993,-1.531 0,-1.113 c 0,-0.133 0.016,-0.235 0.043,-0.309 0.024,-0.078 0.086,-0.137 0.184,-0.18 0.098,-0.051 0.25,-0.074 0.461,-0.074 l 0,-0.316 -2.375,0 0,0.316 c 0.195,0 0.348,0.02 0.449,0.059 0.102,0.039 0.164,0.093 0.199,0.171 0.032,0.079 0.047,0.184 0.047,0.329 l 0,1.05 -1.183,1.973 C 94.09,4 94.082,4.015 94.07,4.035 94.063,4.051 94.055,4.062 94.051,4.066 93.945,4.234 93.855,4.344 93.773,4.394 93.699,4.445 93.578,4.476 93.422,4.48 l 0,0.317 2.211,0 0,-0.317 C 95.52,4.48 95.434,4.476 95.371,4.469 95.305,4.461 95.254,4.445 95.211,4.414 95.168,4.386 95.152,4.336 95.152,4.269 c 0,-0.043 0.012,-0.097 0.039,-0.156 0.028,-0.066 0.09,-0.184 0.192,-0.352 l 0.734,-1.242 0.699,1.106 c 0.153,0.238 0.227,0.418 0.227,0.527 0,0.145 -0.047,0.234 -0.145,0.274 -0.093,0.035 -0.226,0.054 -0.394,0.054 l 0,0.317 1.715,0 0,-0.313 -0.004,0 z"
         style="fill:#500000;fill-opacity:1;fill-rule:nonzero;stroke:none"
         id="path46"
         inkscape:connector-curvature="0" /><path
         d="m 81.863,11.168 c -0.273,-0.399 -0.562,-0.574 -0.945,-0.574 -0.285,0 -0.551,0.085 -0.805,0.25 -0.25,0.171 -0.609,0.582 -1.043,1.203 0.188,0.265 0.391,0.648 0.621,1.187 0.274,0.656 0.536,1.11 0.789,1.348 0.25,0.23 0.551,0.394 0.887,0.484 l 0.055,0.016 0,0.429 -2.926,0 0,-0.437 0.063,-0.008 c 0.64,-0.074 0.949,-0.332 0.949,-0.789 0,-0.199 -0.07,-0.484 -0.207,-0.844 -0.125,-0.332 -0.313,-0.652 -0.528,-0.964 -0.121,0.167 -1.98,2.746 -2.07,2.863 1.219,0.629 1.84,1.285 1.84,1.961 0,0.453 -0.199,0.82 -0.598,1.097 -0.386,0.274 -0.824,0.411 -1.304,0.411 -0.539,0 -1,-0.184 -1.36,-0.551 -0.355,-0.364 -0.539,-0.785 -0.539,-1.25 0,-0.567 0.254,-1.207 0.735,-1.895 -0.805,-0.543 -1.372,-1.008 -1.664,-1.375 -0.305,-0.383 -0.458,-0.855 -0.458,-1.418 0,-0.484 0.125,-0.922 0.368,-1.297 0.25,-0.375 0.566,-0.664 0.953,-0.871 0.387,-0.203 0.801,-0.308 1.222,-0.308 0.848,0 1.657,0.429 2.415,1.25 0.644,-0.821 1.386,-1.25 2.234,-1.25 0.398,0 0.762,0.117 1.074,0.343 0.309,0.227 0.512,0.532 0.609,0.899 l 0.02,0.09 -0.387,0 z m -6.152,6.168 c 0,0.289 0.082,0.527 0.258,0.722 0.183,0.192 0.41,0.289 0.703,0.289 0.297,0 0.531,-0.097 0.715,-0.3 0.179,-0.203 0.269,-0.473 0.269,-0.805 0,-0.539 -0.422,-1.055 -1.215,-1.531 -0.48,0.679 -0.73,1.23 -0.73,1.625 z m -0.922,-3.528 c 0.223,0.34 0.563,0.641 0.973,0.903 0.636,-0.836 1.398,-1.926 2.269,-3.25 -0.484,-0.547 -1.011,-0.832 -1.574,-0.832 -0.519,0 -0.992,0.23 -1.406,0.687 -0.414,0.453 -0.625,0.949 -0.625,1.457 0,0.332 0.121,0.68 0.363,1.035 z"
         style="fill:#500000;fill-opacity:1;fill-rule:nonzero;stroke:none"
         id="path48"
         inkscape:connector-curvature="0" /><path
         d="M 81.742,11.25 C 81.5,10.89 81.25,10.734 80.918,10.734 c -0.25,0 -0.5,0.082 -0.719,0.231 -0.238,0.16 -0.578,0.55 -1.011,1.164 l 0,-0.168 c 0.203,0.281 0.41,0.679 0.636,1.218 0.266,0.641 0.52,1.075 0.758,1.293 0.234,0.219 0.516,0.372 0.828,0.454 l 0.055,0.019 0.105,0.027 0,0.68 -3.215,0 0,-0.707 0.125,-0.019 0.067,-0.004 c 0.726,-0.082 0.824,-0.391 0.824,-0.649 0,-0.125 -0.039,-0.363 -0.199,-0.789 -0.117,-0.297 -0.285,-0.601 -0.516,-0.937 l 0.239,0.004 -0.047,0.062 -2.024,2.805 -0.051,-0.215 c 1.274,0.656 1.918,1.359 1.918,2.09 0,0.504 -0.218,0.91 -0.656,1.215 -0.414,0.289 -0.883,0.433 -1.39,0.433 -0.582,0 -1.075,-0.195 -1.465,-0.59 -0.383,-0.394 -0.582,-0.851 -0.582,-1.355 0,-0.586 0.257,-1.25 0.765,-1.977 l 0.039,0.203 C 74.574,14.66 74,14.187 73.707,13.816 73.379,13.41 73.215,12.902 73.215,12.312 c 0,-0.515 0.129,-0.976 0.39,-1.379 0.262,-0.39 0.598,-0.703 1.004,-0.914 0.414,-0.218 0.848,-0.328 1.293,-0.328 0.879,0 1.723,0.434 2.516,1.297 l -0.215,0.008 c 0.676,-0.867 1.465,-1.305 2.344,-1.305 0.437,0 0.824,0.125 1.156,0.371 0.34,0.25 0.563,0.578 0.664,0.981 0,0 0.024,0.086 0.024,0.086 l 0.047,0.183 -0.653,0 -0.043,-0.062 z m 0.375,-0.043 -0.027,-0.09 c -0.082,-0.336 -0.27,-0.613 -0.551,-0.82 -0.285,-0.207 -0.617,-0.313 -0.988,-0.313 -0.785,0 -1.496,0.402 -2.117,1.192 l -0.102,0.132 -0.117,-0.121 c -0.738,-0.801 -1.516,-1.203 -2.309,-1.203 -0.402,0 -0.789,0.098 -1.156,0.289 -0.367,0.196 -0.668,0.473 -0.898,0.821 -0.231,0.351 -0.348,0.761 -0.348,1.218 0,0.528 0.148,0.973 0.43,1.324 0.277,0.352 0.828,0.801 1.632,1.348 l 0.118,0.082 -0.082,0.121 c -0.473,0.676 -0.715,1.285 -0.715,1.813 0,0.426 0.168,0.812 0.5,1.152 0.332,0.336 0.754,0.508 1.258,0.508 0.449,0 0.863,-0.129 1.222,-0.383 0.356,-0.25 0.539,-0.578 0.539,-0.98 0,-0.618 -0.593,-1.235 -1.761,-1.836 l -0.153,-0.078 c 0,0.003 0.102,-0.133 0.102,-0.133 l 2.019,-2.805 0.047,-0.062 0.117,-0.164 0.118,0.167 c 0.242,0.352 0.418,0.68 0.543,0.997 0.148,0.378 0.214,0.675 0.214,0.894 0,0.535 -0.359,0.852 -1.078,0.93 l -0.062,0.012 0.129,-0.145 0,0.437 -0.145,-0.144 2.926,0 -0.145,0.144 0,-0.429 0.106,0.14 -0.051,-0.015 c -0.359,-0.098 -0.68,-0.274 -0.949,-0.524 -0.27,-0.25 -0.543,-0.703 -0.824,-1.394 -0.219,-0.52 -0.422,-0.899 -0.61,-1.156 l -0.058,-0.086 0.058,-0.086 c 0.461,-0.653 0.817,-1.055 1.082,-1.235 0.274,-0.183 0.571,-0.277 0.883,-0.277 0.434,0 0.762,0.195 1.059,0.641 l -0.114,-0.067 0.391,0 -0.133,0.184 z"
         style="fill:#500000;fill-opacity:1;fill-rule:nonzero;stroke:none"
         id="path50"
         inkscape:connector-curvature="0" /><path
         d="m 75.855,17.336 c 0,0.258 0.071,0.453 0.223,0.629 0.152,0.16 0.34,0.238 0.594,0.238 0.254,0 0.449,-0.078 0.605,-0.254 0.157,-0.172 0.235,-0.41 0.235,-0.703 0,-0.481 -0.383,-0.953 -1.145,-1.41 l 0.192,-0.043 c -0.582,0.832 -0.704,1.297 -0.704,1.543 z m 0.661,-1.746 c 0.851,0.511 1.285,1.066 1.285,1.656 0,0.363 -0.11,0.664 -0.309,0.898 -0.211,0.231 -0.484,0.348 -0.82,0.348 -0.332,0 -0.598,-0.109 -0.805,-0.336 -0.203,-0.223 -0.301,-0.496 -0.301,-0.82 0,-0.418 0.254,-0.989 0.758,-1.707 l 0.074,-0.11 0.118,0.071 z"
         style="fill:#500000;fill-opacity:1;fill-rule:nonzero;stroke:none"
         id="path52"
         inkscape:connector-curvature="0" /><path
         d="m 74.906,13.73 c 0.203,0.305 0.516,0.594 0.934,0.86 l -0.192,0.035 c 0.629,-0.828 1.391,-1.922 2.262,-3.246 l 0.012,0.175 c -0.461,-0.519 -0.953,-0.785 -1.465,-0.785 -0.48,0 -0.918,0.219 -1.297,0.641 -0.39,0.434 -0.59,0.891 -0.59,1.363 0,0.305 0.114,0.625 0.336,0.957 z m -0.625,-0.957 c 0,-0.547 0.227,-1.074 0.664,-1.554 0.442,-0.489 0.95,-0.735 1.512,-0.735 0.594,0 1.164,0.297 1.68,0.879 l 0.078,0.086 -0.063,0.09 c -0.875,1.332 -1.64,2.426 -2.273,3.262 l -0.082,0.105 -0.113,-0.074 C 75.234,14.547 74.891,14.23 74.668,13.89 74.414,13.511 74.281,13.136 74.281,12.773 Z"
         style="fill:#500000;fill-opacity:1;fill-rule:nonzero;stroke:none"
         id="path54"
         inkscape:connector-curvature="0" /><path
         d="m 101.906,2.293 c 0.617,0 1.114,-0.504 1.114,-1.129 0,-0.641 -0.493,-1.141 -1.118,-1.141 -0.617,0 -1.121,0.5 -1.121,1.141 0,0.625 0.504,1.129 1.121,1.129 l 0.004,0 z M 101.902,2.117 C 101.406,2.117 101,1.691 101,1.164 c 0,-0.539 0.406,-0.961 0.906,-0.961 0.504,-0.004 0.907,0.422 0.907,0.957 0,0.531 -0.403,0.957 -0.907,0.957 l -0.004,0 z m -0.211,-1.613 -0.199,0 0,1.261 c 0.106,0.016 0.207,0.028 0.356,0.028 0.191,0 0.316,-0.039 0.394,-0.094 0.071,-0.055 0.113,-0.141 0.113,-0.262 0,-0.164 -0.109,-0.265 -0.246,-0.304 l 0,-0.012 c 0.11,-0.02 0.184,-0.117 0.211,-0.305 0.032,-0.199 0.059,-0.273 0.082,-0.312 l -0.211,0 c -0.031,0.039 -0.062,0.156 -0.086,0.32 -0.031,0.16 -0.113,0.219 -0.273,0.219 l -0.141,0 0,-0.539 z m 0,0.695 0.149,0 c 0.164,0 0.305,0.062 0.305,0.219 0,0.109 -0.079,0.218 -0.305,0.218 -0.067,0 -0.113,-0.003 -0.149,-0.007 l 0,-0.43 z"
         style="fill:#500000;fill-opacity:1;fill-rule:nonzero;stroke:none"
         id="path56"
         inkscape:connector-curvature="0" /></g></g></svg>